<?xml version="1.0" encoding="UTF-8"?>
<!DOCTYPE svg PUBLIC "-//W3C//DTD SVG 1.1//EN" "http://www.w3.org/Graphics/SVG/1.1/DTD/svg11.dtd">
<svg xmlns="http://www.w3.org/2000/svg" version="1.1" width="699px" height="875px" style="shape-rendering:geometricPrecision; text-rendering:geometricPrecision; image-rendering:optimizeQuality; fill-rule:evenodd; clip-rule:evenodd" xmlns:xlink="http://www.w3.org/1999/xlink">
<g><path style="opacity:0.071" fill="#3d463b" d="M 187.5,28.5 C 182.848,28.9981 178.181,29.3314 173.5,29.5C 178.103,27.6725 182.769,27.3392 187.5,28.5 Z"/></g>
<g><path style="opacity:0.997" fill="#fc9d47" d="M 187.5,28.5 C 188.167,28.5 188.5,28.8333 188.5,29.5C 190.4,33.7321 193.067,37.3988 196.5,40.5C 198.016,44.6774 201.016,47.0108 205.5,47.5C 208.642,50.8818 212.308,53.5485 216.5,55.5C 216.229,57.3797 216.896,58.713 218.5,59.5C 218.33,60.8221 218.663,61.9887 219.5,63C 223.249,65.4851 227.249,67.4851 231.5,69C 233.421,74.9591 237.421,77.2924 243.5,76C 246.666,75.6779 249.333,74.5113 251.5,72.5C 252.552,72.6495 253.552,72.4828 254.5,72C 264.178,63.2448 275.511,60.0782 288.5,62.5C 290.027,62.427 291.027,63.0937 291.5,64.5C 293.023,67.3644 295.357,69.031 298.5,69.5C 299.388,74.0043 300.388,78.5043 301.5,83C 300.046,85.1343 298.546,87.301 297,89.5C 296.51,90.7932 296.343,92.1266 296.5,93.5C 296.5,93.8333 296.5,94.1667 296.5,94.5C 294.436,94.687 292.436,95.187 290.5,96C 289.748,96.6708 289.414,97.5041 289.5,98.5C 288.292,99.2341 286.959,99.5674 285.5,99.5C 284.74,104.15 284.074,108.817 283.5,113.5C 279.688,114.026 276.021,114.693 272.5,115.5C 271.5,115.5 270.5,115.5 269.5,115.5C 269.5,116.833 269.5,118.167 269.5,119.5C 269.461,122.089 270.461,124.089 272.5,125.5C 272.5,125.833 272.5,126.167 272.5,126.5C 270.078,127.692 269.078,129.692 269.5,132.5C 268.774,135.958 270.107,137.625 273.5,137.5C 276.187,137.336 278.854,137.503 281.5,138C 282.444,140.719 282.777,143.552 282.5,146.5C 282.905,148.65 283.405,150.65 284,152.5C 281.772,154.968 278.938,156.135 275.5,156C 273.959,157.371 272.625,158.871 271.5,160.5C 270.833,160.5 270.167,160.5 269.5,160.5C 268.933,154.102 265.6,151.936 259.5,154C 258.176,159.266 258.176,164.433 259.5,169.5C 259.32,174.802 261.486,178.802 266,181.5C 266.495,183.473 266.662,185.473 266.5,187.5C 258.139,186.777 250.472,188.61 243.5,193C 242.86,197.932 241.693,202.765 240,207.5C 236.025,210.804 232.025,214.137 228,217.5C 222.675,227.723 222.341,238.057 227,248.5C 227.333,252.5 227.667,256.5 228,260.5C 233.368,267.409 233.701,274.409 229,281.5C 228.333,286.167 228.333,290.833 229,295.5C 232.288,297.289 235.122,299.622 237.5,302.5C 234.24,305.44 232.907,309.106 233.5,313.5C 246.347,312.512 246.68,314.345 234.5,319C 230.998,323.75 226.332,326.416 220.5,327C 218.393,328.264 217.393,330.097 217.5,332.5C 214.193,332.063 211.193,332.73 208.5,334.5C 207.711,337.646 207.045,340.813 206.5,344C 208.048,347.89 210.048,351.556 212.5,355C 217.809,355.345 222.975,355.511 228,355.5C 228.456,356.744 227.956,357.577 226.5,358C 223.832,358.567 221.166,359.067 218.5,359.5C 218.689,364.301 219.356,368.967 220.5,373.5C 218.073,373.523 215.74,374.023 213.5,375C 212.813,377.232 212.479,379.398 212.5,381.5C 207.565,380.552 202.565,380.219 197.5,380.5C 197.959,375.178 195.959,371.178 191.5,368.5C 189.015,369.682 186.681,369.348 184.5,367.5C 182.358,365.43 181.024,362.93 180.5,360C 176.415,361.118 172.081,361.785 167.5,362C 163.108,372.804 163.775,383.304 169.5,393.5C 167.981,396.601 167.315,399.934 167.5,403.5C 163.815,403.105 160.148,402.938 156.5,403C 155.88,405.473 155.214,407.973 154.5,410.5C 152.333,409.208 150,408.375 147.5,408C 145.679,406.257 143.679,404.757 141.5,403.5C 140.688,398.885 138.188,395.552 134,393.5C 133.498,390.487 132.998,387.487 132.5,384.5C 127.249,384.428 125.249,381.928 126.5,377C 125.809,374.454 124.476,372.287 122.5,370.5C 116.824,374.154 110.824,374.487 104.5,371.5C 103.614,370.675 103.281,369.675 103.5,368.5C 93.3256,366.58 82.9923,365.247 72.5,364.5C 70.8871,361.197 69.2204,357.864 67.5,354.5C 66.4625,353.07 65.7959,351.403 65.5,349.5C 65.5,346.5 65.5,343.5 65.5,340.5C 61.919,340.138 58.919,341.138 56.5,343.5C 55.8333,343.5 55.5,343.167 55.5,342.5C 55.6646,339.482 55.498,336.482 55,333.5C 53.9609,332.29 52.7942,331.29 51.5,330.5C 50.1667,329.167 50.1667,327.833 51.5,326.5C 56.7892,324.289 57.7892,320.789 54.5,316C 50.1794,315.501 45.8461,315.334 41.5,315.5C 38.8333,310.167 38.8333,304.833 41.5,299.5C 44.7845,299.731 47.2845,298.397 49,295.5C 51.1415,291.556 52.9748,287.556 54.5,283.5C 57.2282,283.829 59.5615,283.163 61.5,281.5C 63.3841,281.288 64.7174,280.288 65.5,278.5C 66.9705,279.381 67.8038,280.714 68,282.5C 68.6708,283.252 69.5041,283.586 70.5,283.5C 77.8625,283.635 85.1958,283.302 92.5,282.5C 95.5959,283.093 97.9292,282.093 99.5,279.5C 101.341,278.77 103.175,278.103 105,277.5C 104.775,274.175 106.108,271.842 109,270.5C 109.311,268.444 109.811,266.444 110.5,264.5C 113.886,260.798 117.886,257.798 122.5,255.5C 123.452,253.955 123.785,252.288 123.5,250.5C 123.5,249.833 123.833,249.5 124.5,249.5C 127.366,249.367 129.366,248.034 130.5,245.5C 131.496,245.586 132.329,245.252 133,244.5C 133.303,240.106 133.97,235.773 135,231.5C 137.79,228.535 140.957,226.202 144.5,224.5C 145.833,224.5 147.167,224.5 148.5,224.5C 149.793,225.645 150.959,225.311 152,223.5C 152.498,220.183 152.665,216.85 152.5,213.5C 152.842,212.662 153.508,212.328 154.5,212.5C 155.189,213.774 156.023,213.774 157,212.5C 157.49,211.207 157.657,209.873 157.5,208.5C 159.497,205.175 161.497,201.841 163.5,198.5C 164.338,198.158 164.672,197.492 164.5,196.5C 166.095,194.889 167.261,192.889 168,190.5C 168.815,185.648 168.648,180.981 167.5,176.5C 167.5,175.833 167.5,175.167 167.5,174.5C 171.965,175.428 175.298,174.094 177.5,170.5C 178.167,170.5 178.833,170.5 179.5,170.5C 180.601,171.598 181.934,171.765 183.5,171C 185.916,168.926 187.916,166.592 189.5,164C 189.316,162.624 188.649,161.791 187.5,161.5C 187.389,160.883 187.056,160.383 186.5,160C 183.854,159.503 181.187,159.336 178.5,159.5C 176.036,157.601 173.369,156.268 170.5,155.5C 170.662,149.302 167.996,146.969 162.5,148.5C 160.62,148.771 159.287,148.104 158.5,146.5C 158.5,145.167 158.5,143.833 158.5,142.5C 155.5,142.5 152.5,142.5 149.5,142.5C 148.094,142.027 147.427,141.027 147.5,139.5C 146.676,136.236 146.342,132.902 146.5,129.5C 146.5,123.833 146.5,118.167 146.5,112.5C 146.082,109.561 144.582,107.228 142,105.5C 141.833,104.167 141.667,102.833 141.5,101.5C 142.222,98.4927 143.556,95.826 145.5,93.5C 147.265,92.5386 149.265,92.2053 151.5,92.5C 158.142,92.36 160.976,89.0266 160,82.5C 159.29,81.0267 158.124,80.3601 156.5,80.5C 155.508,80.6716 154.842,80.3382 154.5,79.5C 154.577,78.2502 155.244,77.4169 156.5,77C 154.687,77.0464 153.021,76.8797 151.5,76.5C 150.52,73.9135 150.187,71.2469 150.5,68.5C 149.209,68.2627 148.209,68.596 147.5,69.5C 145.143,69.6633 142.81,69.4966 140.5,69C 138.699,66.5574 137.032,64.0574 135.5,61.5C 132.359,60.6787 129.025,60.1787 125.5,60C 124.872,57.0614 124.205,54.2281 123.5,51.5C 123.833,50.8333 124.167,50.1667 124.5,49.5C 127.562,48.7322 129.228,46.7322 129.5,43.5C 133.866,42.7914 136.2,40.1248 136.5,35.5C 139.85,35.335 143.183,35.5017 146.5,36C 148.321,38.1366 150.654,38.9699 153.5,38.5C 153.5,37.5 153.5,36.5 153.5,35.5C 153.5,33.8333 153.5,32.1667 153.5,30.5C 154.791,30.2627 155.791,30.596 156.5,31.5C 156.611,32.1174 156.944,32.6174 157.5,33C 162.305,34.2538 166.305,33.0872 169.5,29.5C 170.833,29.5 172.167,29.5 173.5,29.5C 178.181,29.3314 182.848,28.9981 187.5,28.5 Z"/></g>
<g><path style="opacity:0.02" fill="#4d4c3a" d="M 169.5,29.5 C 166.305,33.0872 162.305,34.2538 157.5,33C 156.944,32.6174 156.611,32.1174 156.5,31.5C 161.005,31.7295 165.339,31.0628 169.5,29.5 Z"/></g>
<g><path style="opacity:0.055" fill="#6a6346" d="M 136.5,35.5 C 141.629,33.7406 146.463,34.4073 151,37.5C 152.011,36.9444 152.844,36.2778 153.5,35.5C 153.5,36.5 153.5,37.5 153.5,38.5C 150.654,38.9699 148.321,38.1366 146.5,36C 143.183,35.5017 139.85,35.335 136.5,35.5 Z"/></g>
<g><path style="opacity:0.102" fill="#262d1e" d="M 188.5,29.5 C 191.933,32.6012 194.6,36.2679 196.5,40.5C 193.067,37.3988 190.4,33.7321 188.5,29.5 Z"/></g>
<g><path style="opacity:0.286" fill="#3f3b26" d="M 136.5,35.5 C 136.2,40.1248 133.866,42.7914 129.5,43.5C 132.295,41.2486 134.628,38.5819 136.5,35.5 Z"/></g>
<g><path style="opacity:0.169" fill="#515235" d="M 196.5,40.5 C 199.72,42.6029 202.72,44.9362 205.5,47.5C 201.016,47.0108 198.016,44.6774 196.5,40.5 Z"/></g>
<g><path style="opacity:0.192" fill="#56583b" d="M 129.5,43.5 C 129.228,46.7322 127.562,48.7322 124.5,49.5C 126.177,47.4602 127.844,45.4602 129.5,43.5 Z"/></g>
<g><path style="opacity:0.043" fill="#55583d" d="M 205.5,47.5 C 208.478,48.989 211.478,50.489 214.5,52C 215.823,52.8159 216.489,53.9826 216.5,55.5C 212.308,53.5485 208.642,50.8818 205.5,47.5 Z"/></g>
<g><path style="opacity:0.098" fill="#475540" d="M 216.5,55.5 C 217.674,56.5137 218.34,57.847 218.5,59.5C 216.896,58.713 216.229,57.3797 216.5,55.5 Z"/></g>
<g><path style="opacity:0.039" fill="#7f664c" d="M 123.5,51.5 C 124.205,54.2281 124.872,57.0614 125.5,60C 129.025,60.1787 132.359,60.6787 135.5,61.5C 131.818,61.6653 128.152,61.4986 124.5,61C 123.707,59.9148 123.04,58.7481 122.5,57.5C 123.348,55.5914 123.682,53.5914 123.5,51.5 Z"/></g>
<g><path style="opacity:0.106" fill="#4d4f36" d="M 288.5,62.5 C 275.511,60.0782 264.178,63.2448 254.5,72C 253.552,72.4828 252.552,72.6495 251.5,72.5C 259.115,64.6974 268.448,60.6974 279.5,60.5C 282.814,60.3425 285.814,61.0092 288.5,62.5 Z"/></g>
<g><path style="opacity:0.035" fill="#3c3d29" d="M 291.5,64.5 C 294.117,65.7859 296.45,67.4525 298.5,69.5C 295.357,69.031 293.023,67.3644 291.5,64.5 Z"/></g>
<g><path style="opacity:0.027" fill="#514c30" d="M 218.5,59.5 C 219.674,61.4409 221.341,62.9409 223.5,64C 226.376,64.4379 229.043,65.4379 231.5,67C 233.126,69.6277 235.126,71.961 237.5,74C 242.262,74.4775 246.929,73.9775 251.5,72.5C 249.333,74.5113 246.666,75.6779 243.5,76C 237.421,77.2924 233.421,74.9591 231.5,69C 227.249,67.4851 223.249,65.4851 219.5,63C 218.663,61.9887 218.33,60.8221 218.5,59.5 Z"/></g>
<g><path style="opacity:0.559" fill="#8e6b39" d="M 154.5,79.5 C 152.83,79.2488 151.33,78.5822 150,77.5C 148.976,74.8649 148.143,72.1982 147.5,69.5C 148.209,68.596 149.209,68.2627 150.5,68.5C 150.187,71.2469 150.52,73.9135 151.5,76.5C 153.021,76.8797 154.687,77.0464 156.5,77C 155.244,77.4169 154.577,78.2502 154.5,79.5 Z"/></g>
<g><path style="opacity:0.043" fill="#555037" d="M 298.5,69.5 C 300.466,73.6518 302.132,78.1518 303.5,83C 300.657,86.1107 298.324,89.6107 296.5,93.5C 296.343,92.1266 296.51,90.7932 297,89.5C 298.546,87.301 300.046,85.1343 301.5,83C 300.388,78.5043 299.388,74.0043 298.5,69.5 Z"/></g>
<g><path style="opacity:0.278" fill="#41472c" d="M 156.5,80.5 C 158.124,80.3601 159.29,81.0267 160,82.5C 160.976,89.0266 158.142,92.36 151.5,92.5C 152.842,91.207 154.509,90.3736 156.5,90C 160.457,86.7037 160.457,83.5371 156.5,80.5 Z"/></g>
<g><path style="opacity:0.043" fill="#696049" d="M 296.5,94.5 C 294.322,95.9787 291.988,97.312 289.5,98.5C 289.414,97.5041 289.748,96.6708 290.5,96C 292.436,95.187 294.436,94.687 296.5,94.5 Z"/></g>
<g><path style="opacity:0.3" fill="#42432c" d="M 145.5,93.5 C 143.556,95.826 142.222,98.4927 141.5,101.5C 141.667,102.833 141.833,104.167 142,105.5C 144.582,107.228 146.082,109.561 146.5,112.5C 142.747,109.57 140.414,105.737 139.5,101C 139.879,97.1282 141.879,94.6282 145.5,93.5 Z"/></g>
<g><path style="opacity:0.239" fill="#4b4d38" d="M 289.5,98.5 C 289.25,99.9221 288.417,100.922 287,101.5C 286.244,105.758 285.077,109.758 283.5,113.5C 284.074,108.817 284.74,104.15 285.5,99.5C 286.959,99.5674 288.292,99.2341 289.5,98.5 Z"/></g>
<g><path style="opacity:0.29" fill="#393c23" d="M 283.5,113.5 C 282.232,115.387 280.399,116.387 278,116.5C 276.175,116.057 274.342,115.723 272.5,115.5C 276.021,114.693 279.688,114.026 283.5,113.5 Z"/></g>
<g><path style="opacity:0.078" fill="#393e31" d="M 269.5,119.5 C 271.008,121.181 272.008,123.181 272.5,125.5C 270.461,124.089 269.461,122.089 269.5,119.5 Z"/></g>
<g><path style="opacity:0.227" fill="#404f39" d="M 146.5,129.5 C 146.342,132.902 146.676,136.236 147.5,139.5C 146.883,139.389 146.383,139.056 146,138.5C 145.195,135.304 145.362,132.304 146.5,129.5 Z"/></g>
<g><path style="opacity:0.596" fill="#493d23" d="M 272.5,126.5 C 270.858,130.463 271.191,134.129 273.5,137.5C 270.107,137.625 268.774,135.958 269.5,132.5C 269.078,129.692 270.078,127.692 272.5,126.5 Z"/></g>
<g><path style="opacity:0.039" fill="#494e3f" d="M 149.5,142.5 C 152.5,142.5 155.5,142.5 158.5,142.5C 158.5,143.833 158.5,145.167 158.5,146.5C 157.596,145.791 157.263,144.791 157.5,143.5C 154.615,143.806 151.948,143.473 149.5,142.5 Z"/></g>
<g><path style="opacity:0.2" fill="#363e2c" d="M 162.5,148.5 C 167.996,146.969 170.662,149.302 170.5,155.5C 169.266,153.34 167.933,151.173 166.5,149C 165.207,148.51 163.873,148.343 162.5,148.5 Z"/></g>
<g><path style="opacity:0.012" fill="#4e523c" d="M 282.5,146.5 C 287.102,153.148 285.102,156.648 276.5,157C 275.511,159.158 273.844,160.325 271.5,160.5C 272.625,158.871 273.959,157.371 275.5,156C 278.938,156.135 281.772,154.968 284,152.5C 283.405,150.65 282.905,148.65 282.5,146.5 Z"/></g>
<g><path style="opacity:0.212" fill="#464c2f" d="M 269.5,160.5 C 267.366,159.297 266.032,157.463 265.5,155C 263.833,154.333 262.167,154.333 260.5,155C 259.531,159.737 259.197,164.57 259.5,169.5C 258.176,164.433 258.176,159.266 259.5,154C 265.6,151.936 268.933,154.102 269.5,160.5 Z"/></g>
<g><path style="opacity:0.031" fill="#60634a" d="M 178.5,159.5 C 181.187,159.336 183.854,159.503 186.5,160C 187.056,160.383 187.389,160.883 187.5,161.5C 184.813,161.664 182.146,161.497 179.5,161C 178.944,160.617 178.611,160.117 178.5,159.5 Z"/></g>
<g><path style="opacity:0.137" fill="#56573c" d="M 187.5,161.5 C 188.649,161.791 189.316,162.624 189.5,164C 187.916,166.592 185.916,168.926 183.5,171C 181.934,171.765 180.601,171.598 179.5,170.5C 182.989,169.523 185.823,167.523 188,164.5C 188.47,163.423 188.303,162.423 187.5,161.5 Z"/></g>
<g><path style="opacity:0.063" fill="#32352b" d="M 177.5,170.5 C 175.298,174.094 171.965,175.428 167.5,174.5C 170.971,173.774 174.304,172.44 177.5,170.5 Z"/></g>
<g><path style="opacity:0.067" fill="#535c4a" d="M 259.5,169.5 C 260.976,173.759 263.476,177.426 267,180.5C 267.494,182.134 267.66,183.801 267.5,185.5C 271.042,185.187 274.375,185.521 277.5,186.5C 273.722,187.284 270.055,187.617 266.5,187.5C 266.662,185.473 266.495,183.473 266,181.5C 261.486,178.802 259.32,174.802 259.5,169.5 Z"/></g>
<g><path style="opacity:0.971" fill="#141011" d="M 277.5,186.5 C 278.167,186.5 278.5,186.833 278.5,187.5C 278.343,188.873 278.51,190.207 279,191.5C 281.018,193.35 282.851,195.35 284.5,197.5C 292.256,199.95 298.589,204.283 303.5,210.5C 308.805,212.486 313.805,214.986 318.5,218C 319.163,219.518 320.163,220.685 321.5,221.5C 321.5,222.833 321.5,224.167 321.5,225.5C 319.824,226.183 319.157,227.517 319.5,229.5C 317.473,229.338 315.473,229.505 313.5,230C 311.612,232.19 309.445,234.023 307,235.5C 306.556,238.611 305.223,241.277 303,243.5C 302.602,249.846 301.102,255.846 298.5,261.5C 314.796,262.835 327.796,270.168 337.5,283.5C 343.801,285.002 349.801,287.168 355.5,290C 361.041,289.163 365.041,291.163 367.5,296C 373.157,296.499 378.824,296.666 384.5,296.5C 384.392,294.486 385.058,292.82 386.5,291.5C 387.5,291.5 388.5,291.5 389.5,291.5C 392.978,291.184 396.312,291.684 399.5,293C 402.732,296.062 405.732,299.229 408.5,302.5C 408.511,304.017 409.177,305.184 410.5,306C 413.167,307.667 415.833,309.333 418.5,311C 426.612,311.154 434.279,312.32 441.5,314.5C 442.434,315.568 442.768,316.901 442.5,318.5C 442.5,319.167 442.167,319.5 441.5,319.5C 440.18,318.058 438.514,317.392 436.5,317.5C 437.158,321.677 435.492,323.177 431.5,322C 430.76,320.215 430.093,318.382 429.5,316.5C 415.904,316.2 405.904,310.034 399.5,298C 396.822,295.554 393.822,295.054 390.5,296.5C 391.634,299.07 392.468,301.736 393,304.5C 398.905,305.397 401.238,308.73 400,314.5C 398.043,315.889 396.21,317.389 394.5,319C 395.078,320.811 395.578,322.645 396,324.5C 398.483,326.148 400.316,328.315 401.5,331C 403.717,332.275 406.051,333.275 408.5,334C 410.013,337.429 409.347,340.429 406.5,343C 401.641,343.735 396.974,344.901 392.5,346.5C 392.254,349.47 390.588,350.803 387.5,350.5C 385.569,353.453 383.569,356.453 381.5,359.5C 383.626,368.368 384.959,377.368 385.5,386.5C 388.552,388.254 390.386,390.921 391,394.5C 393.846,396.257 396.512,398.257 399,400.5C 399.24,406.603 401.24,411.936 405,416.5C 405.667,418.5 405.667,420.5 405,422.5C 403.615,423.551 402.615,424.884 402,426.5C 401.881,431.282 401.215,435.949 400,440.5C 397.433,441.27 394.933,442.27 392.5,443.5C 392.27,448.967 389.77,452.967 385,455.5C 384.667,459.833 384.333,464.167 384,468.5C 383.167,469.333 382.333,470.167 381.5,471C 374.435,471.69 367.768,473.523 361.5,476.5C 360.998,482.505 360.832,488.505 361,494.5C 361.309,495.766 361.809,496.933 362.5,498C 365.603,499.439 368.436,501.273 371,503.5C 371.667,504.833 371.667,506.167 371,507.5C 364.73,508.511 358.564,508.511 352.5,507.5C 353.213,509.776 353.713,512.109 354,514.5C 355.667,516.167 357.333,517.833 359,519.5C 359.667,524.833 359.667,530.167 359,535.5C 355.233,538.435 352.4,542.102 350.5,546.5C 346.956,548.536 343.289,550.369 339.5,552C 334.014,557.357 335.348,559.357 343.5,558C 345.527,555.319 348.193,553.653 351.5,553C 354.835,549.659 356.835,545.659 357.5,541C 362.705,541.966 368.038,542.466 373.5,542.5C 373.998,539.513 374.498,536.513 375,533.5C 378.841,529.992 382.341,526.159 385.5,522C 391.026,522.723 396.526,523.89 402,525.5C 405.042,525.63 407.209,524.297 408.5,521.5C 411.768,520.513 415.102,520.18 418.5,520.5C 419.136,516.646 421.469,514.313 425.5,513.5C 426.214,510.973 426.88,508.473 427.5,506C 430.167,505.667 432.833,505.333 435.5,505C 441.822,499.723 449.156,496.89 457.5,496.5C 459.756,491.41 463.256,487.41 468,484.5C 468.667,481.167 468.667,477.833 468,474.5C 464.582,473.092 462.749,470.592 462.5,467C 462.849,463.564 463.516,460.231 464.5,457C 472.745,456.97 480.745,455.637 488.5,453C 490.157,449.653 491.99,446.487 494,443.5C 495.667,444.167 497.333,444.833 499,445.5C 503.454,444.507 507.954,443.84 512.5,443.5C 510.171,429.559 508.337,415.559 507,401.5C 504.454,398.814 501.287,397.814 497.5,398.5C 496.539,393.628 498.372,390.295 503,388.5C 503.821,385.446 503.655,382.446 502.5,379.5C 491.654,380.156 486.82,375.156 488,364.5C 489.745,363.044 491.578,361.711 493.5,360.5C 494.466,358.604 494.799,356.604 494.5,354.5C 498.804,353.869 503.137,353.369 507.5,353C 508.468,350.263 507.468,348.263 504.5,347C 501.574,346.782 498.74,346.282 496,345.5C 495.667,342.833 495.333,340.167 495,337.5C 492.667,336.167 490.333,334.833 488,333.5C 487.689,331.444 487.189,329.444 486.5,327.5C 488.028,326.139 489.695,324.972 491.5,324C 495.685,323.669 499.685,322.836 503.5,321.5C 506.849,321.892 510.183,322.392 513.5,323C 515.644,324.146 517.477,325.646 519,327.5C 519.5,327.333 520,327.167 520.5,327C 517.602,321.754 517.936,316.754 521.5,312C 520.299,311.097 519.465,309.931 519,308.5C 513.006,306.725 506.839,306.058 500.5,306.5C 500.328,305.508 500.662,304.842 501.5,304.5C 505.311,305.645 509.311,305.812 513.5,305C 514.078,303.583 515.078,302.75 516.5,302.5C 518.901,303.539 521.235,304.873 523.5,306.5C 524.107,306.376 524.44,306.043 524.5,305.5C 526.998,306.082 529.331,306.082 531.5,305.5C 528.416,308.699 525.583,312.032 523,315.5C 520.513,320.253 521.346,324.253 525.5,327.5C 526.493,332.12 526.827,336.786 526.5,341.5C 525.935,338.695 524.935,336.028 523.5,333.5C 523.53,332.503 523.03,331.836 522,331.5C 516.4,333.302 512.567,331.469 510.5,326C 509.5,325.833 508.5,325.667 507.5,325.5C 502.409,327.785 497.076,328.785 491.5,328.5C 491.33,329.822 491.663,330.989 492.5,332C 498.096,332.473 500.429,335.64 499.5,341.5C 501.857,341.337 504.19,341.503 506.5,342C 507.622,344.124 509.122,345.957 511,347.5C 511.777,350.429 511.61,353.263 510.5,356C 506.916,357.073 503.25,357.74 499.5,358C 498.773,359.399 498.273,360.899 498,362.5C 493.732,364.216 491.732,367.216 492,371.5C 493.019,372.687 494.186,373.687 495.5,374.5C 496.107,374.376 496.44,374.043 496.5,373.5C 497.833,373.5 499.167,373.5 500.5,373.5C 501.958,375.011 503.791,376.011 506,376.5C 507.545,381.047 507.879,385.713 507,390.5C 505.58,392.422 503.747,393.755 501.5,394.5C 504.862,394.85 507.695,396.184 510,398.5C 511.405,404.063 512.405,409.73 513,415.5C 513.383,416.056 513.883,416.389 514.5,416.5C 514.5,419.167 514.5,421.833 514.5,424.5C 513.903,424.735 513.57,425.235 513.5,426C 514.218,429.461 514.718,432.961 515,436.5C 517.811,439.4 518.311,442.733 516.5,446.5C 510.279,446.801 504.612,448.468 499.5,451.5C 498.5,451.5 497.5,451.5 496.5,451.5C 495.603,450.402 494.77,450.402 494,451.5C 493.51,452.793 493.343,454.127 493.5,455.5C 489.485,456.895 485.485,458.395 481.5,460C 477.247,460.2 473.08,460.7 469,461.5C 466.593,465.466 467.26,468.8 471,471.5C 471.667,476.5 471.667,481.5 471,486.5C 466.552,490.11 463.052,494.443 460.5,499.5C 458.855,500.696 457.189,501.696 455.5,502.5C 454.833,502.5 454.167,502.5 453.5,502.5C 449.266,503.719 444.933,504.886 440.5,506C 438.859,507.129 437.859,508.629 437.5,510.5C 436.432,511.434 435.099,511.768 433.5,511.5C 433.44,510.957 433.107,510.624 432.5,510.5C 431.374,512.793 430.041,514.96 428.5,517C 423.63,517.903 420.963,520.737 420.5,525.5C 417.129,528.871 413.463,531.871 409.5,534.5C 410.802,531.559 412.802,529.225 415.5,527.5C 414.833,526.167 413.833,525.167 412.5,524.5C 409.891,525.443 407.891,527.11 406.5,529.5C 401.735,531.039 397.402,530.205 393.5,527C 391.5,526.333 389.5,526.333 387.5,527C 382.476,531.882 379.143,537.715 377.5,544.5C 372.077,546.535 366.744,546.535 361.5,544.5C 359.246,548.007 357.246,551.673 355.5,555.5C 352.881,555.976 350.881,557.309 349.5,559.5C 346.033,560.6 342.533,561.6 339,562.5C 335.099,561.733 331.265,560.733 327.5,559.5C 325.589,557.298 323.255,555.631 320.5,554.5C 319.542,552.376 318.375,550.376 317,548.5C 313.336,546.833 311.169,544 310.5,540C 294.773,539.784 289.44,532.284 294.5,517.5C 285.834,516.223 277.168,515.057 268.5,514C 267.331,511.993 266.665,509.827 266.5,507.5C 262.812,507.781 259.145,508.281 255.5,509C 253.591,512.823 251.757,516.657 250,520.5C 246.274,521.363 242.941,523.029 240,525.5C 240.017,527.568 241.017,529.234 243,530.5C 243.667,532.833 243.667,535.167 243,537.5C 239.641,540.842 237.141,544.676 235.5,549C 232.028,549.872 229.028,549.039 226.5,546.5C 224.609,548.016 222.609,549.35 220.5,550.5C 219.207,557.632 214.874,562.132 207.5,564C 204.572,565.918 202.906,568.585 202.5,572C 196.057,571.972 189.724,571.139 183.5,569.5C 183.665,573.182 183.499,576.848 183,580.5C 182.5,581 182,581.5 181.5,582C 177.805,582.318 174.138,582.818 170.5,583.5C 168.896,583.061 167.396,582.394 166,581.5C 165.228,581.645 164.561,581.978 164,582.5C 163.55,584.519 162.717,586.352 161.5,588C 157.206,589.143 152.873,589.977 148.5,590.5C 150.305,595.97 151.139,601.637 151,607.5C 149.152,610.041 146.652,611.041 143.5,610.5C 143.78,614.113 145.78,616.113 149.5,616.5C 146.712,623.733 144.045,631.066 141.5,638.5C 144.939,647.555 148.439,656.555 152,665.5C 152.684,670.822 153.184,676.156 153.5,681.5C 151.033,666.606 146.366,652.272 139.5,638.5C 140.246,637.264 140.579,635.93 140.5,634.5C 139.041,634.567 137.708,634.234 136.5,633.5C 137.568,632.566 138.901,632.232 140.5,632.5C 140.724,627.626 142.057,623.126 144.5,619C 143.104,616.765 141.104,615.598 138.5,615.5C 138.338,613.473 138.505,611.473 139,609.5C 141.456,607.789 144.123,606.456 147,605.5C 146.713,599.746 146.046,594.08 145,588.5C 145.5,588 146,587.5 146.5,587C 150.813,586.265 155.147,585.765 159.5,585.5C 159.835,577.255 163.668,575.255 171,579.5C 173.724,578.313 176.557,577.647 179.5,577.5C 179.572,573.374 180.239,569.374 181.5,565.5C 187.791,565.343 193.791,566.343 199.5,568.5C 199.238,567.022 199.571,565.689 200.5,564.5C 203.389,561.888 206.722,560.055 210.5,559C 211.337,557.989 211.67,556.822 211.5,555.5C 212.833,555.5 214.167,555.5 215.5,555.5C 214.82,548.179 218.153,544.179 225.5,543.5C 227.682,543.697 229.682,544.364 231.5,545.5C 232.442,545.392 233.275,545.059 234,544.5C 235.9,541.079 238.067,537.745 240.5,534.5C 239.533,532.37 238.366,530.37 237,528.5C 236.333,526.833 236.333,525.167 237,523.5C 239.543,521.658 241.71,519.491 243.5,517C 248.62,516.09 251.12,512.924 251,507.5C 253.869,504.114 257.536,502.781 262,503.5C 268.085,502.651 270.918,505.318 270.5,511.5C 279.497,511.894 288.497,512.228 297.5,512.5C 297.915,517.34 297.248,522.007 295.5,526.5C 295.988,529.474 297.488,531.807 300,533.5C 301.623,529.725 303.123,525.892 304.5,522C 308.795,519.228 313.462,517.395 318.5,516.5C 318.225,512.891 316.225,510.891 312.5,510.5C 309.442,508.396 308.776,505.73 310.5,502.5C 309.5,500 308.5,497.5 307.5,495C 308.52,492.141 310.52,490.641 313.5,490.5C 313.299,487.272 313.633,484.105 314.5,481C 314.081,478.914 312.914,477.414 311,476.5C 310.501,471.845 310.334,467.179 310.5,462.5C 302.549,458.671 294.382,458.005 286,460.5C 283.143,459.969 280.477,458.969 278,457.5C 273.9,458.299 270.066,459.799 266.5,462C 255.173,462.926 243.84,463.259 232.5,463C 232.091,460.053 231.091,457.386 229.5,455C 225.83,455.159 222.163,455.659 218.5,456.5C 214.758,461.683 211.758,467.35 209.5,473.5C 206.562,474.575 203.562,474.741 200.5,474C 198.87,471.171 197.536,468.171 196.5,465C 189.518,465.331 182.518,465.331 175.5,465C 174.833,464 174.167,463 173.5,462C 168.584,461.239 163.918,459.739 159.5,457.5C 158.291,454.914 156.957,452.414 155.5,450C 156.148,448.56 156.481,447.06 156.5,445.5C 154.633,445.955 152.8,446.622 151,447.5C 149.289,447.561 147.956,446.894 147,445.5C 144.95,441.461 144.116,437.128 144.5,432.5C 145.5,432.5 146.5,432.5 147.5,432.5C 149.29,427.848 151.79,423.515 155,419.5C 155.436,417.064 154.603,415.064 152.5,413.5C 146.147,412.97 140.981,410.303 137,405.5C 136.667,403.5 136.333,401.5 136,399.5C 133.929,398.475 131.762,397.642 129.5,397C 128.62,395.644 128.286,394.144 128.5,392.5C 127.325,392.719 126.325,392.386 125.5,391.5C 124.852,387.417 123.518,383.583 121.5,380C 117.167,379.667 112.833,379.333 108.5,379C 99.6584,373.219 89.9917,369.719 79.5,368.5C 77.4404,368.572 75.4404,368.905 73.5,369.5C 72.2486,372.756 71.2486,376.09 70.5,379.5C 53.3145,382.05 36.1478,382.05 19,379.5C 17.5,380.333 16.3333,381.5 15.5,383C 14.4537,387.492 13.4537,391.992 12.5,396.5C 5.51732,397.8 3.18398,401.8 5.5,408.5C 8.61407,411.375 12.2807,413.209 16.5,414C 23.1005,419.593 30.7672,421.927 39.5,421C 41.4136,419.587 42.7469,417.753 43.5,415.5C 45.9109,414.912 47.9109,413.745 49.5,412C 57.3694,408.513 60.8694,411.013 60,419.5C 57.3308,422.164 54.1641,423.998 50.5,425C 49.1667,426.667 47.8333,428.333 46.5,430C 41.251,431.819 35.9177,433.319 30.5,434.5C 27.2418,433.091 24.0751,431.425 21,429.5C 16.6552,432.615 16.3218,436.282 20,440.5C 24.149,444.804 27.8157,449.47 31,454.5C 34.8762,457.239 37.5429,460.905 39,465.5C 43.2198,469.039 47.3865,472.706 51.5,476.5C 57.6767,480.082 64.3434,481.249 71.5,480C 73.0995,478.934 74.0995,477.434 74.5,475.5C 78.2052,474.901 81.8719,474.568 85.5,474.5C 86.5366,471.297 88.2032,468.463 90.5,466C 92.4727,465.505 94.4727,465.338 96.5,465.5C 96.4433,463.116 96.7766,460.782 97.5,458.5C 94.329,451.213 94.9957,444.38 99.5,438C 107.812,437.14 109.479,439.974 104.5,446.5C 105.578,448.997 107.411,450.663 110,451.5C 110.595,452.899 110.428,454.232 109.5,455.5C 110.689,456.429 112.022,456.762 113.5,456.5C 113.598,461.374 111.765,465.374 108,468.5C 107.833,469.5 107.667,470.5 107.5,471.5C 109.757,475.683 111.757,480.016 113.5,484.5C 110.9,489.994 108.733,495.661 107,501.5C 106.333,503.833 106.333,506.167 107,508.5C 111.214,514.062 111.381,519.728 107.5,525.5C 109.766,526.314 112.1,526.814 114.5,527C 115.022,527.561 115.355,528.228 115.5,529C 114.295,532.003 112.462,534.503 110,536.5C 109.333,540.167 109.333,543.833 110,547.5C 112.345,556.543 115.012,565.543 118,574.5C 119.54,585.28 121.206,595.947 123,606.5C 126.003,610.876 129.003,615.209 132,619.5C 132.855,623.952 134.021,628.285 135.5,632.5C 130.677,632.673 128.677,630.339 129.5,625.5C 127.679,621.259 124.846,617.593 121,614.5C 119.077,605.353 117.244,596.353 115.5,587.5C 114.518,584.038 114.185,580.371 114.5,576.5C 114.196,573.478 113.696,570.478 113,567.5C 112.186,564.823 110.686,562.823 108.5,561.5C 108.5,561.167 108.5,560.833 108.5,560.5C 109.147,559.726 109.48,558.726 109.5,557.5C 108.303,551.716 106.97,546.05 105.5,540.5C 105.146,536.042 106.812,532.542 110.5,530C 108.62,530.51 106.787,530.343 105,529.5C 104.386,525.138 104.886,520.971 106.5,517C 104.782,513.07 103.782,508.903 103.5,504.5C 104.277,497.282 105.944,490.282 108.5,483.5C 108.365,480.699 107.032,478.699 104.5,477.5C 104.493,474.962 104.159,472.462 103.5,470C 105.818,466.586 107.152,462.753 107.5,458.5C 106.178,458.67 105.011,458.337 104,457.5C 103.887,453.451 102.72,449.785 100.5,446.5C 100.876,444.617 101.876,443.117 103.5,442C 102.451,441.508 101.451,441.674 100.5,442.5C 98.0158,446.582 98.1825,450.582 101,454.5C 101.667,456.833 101.667,459.167 101,461.5C 99.9197,463.553 99.0864,465.72 98.5,468C 96.6547,469.128 94.6547,469.628 92.5,469.5C 90.6366,472.569 89.3032,475.902 88.5,479.5C 85.6346,480.783 82.6346,480.783 79.5,479.5C 78.7124,480.77 77.7124,481.77 76.5,482.5C 71.3561,484.264 66.0228,484.931 60.5,484.5C 55.5602,482.115 50.5602,479.615 45.5,477C 37.9161,467.93 30.2495,459.096 22.5,450.5C 21.3615,447.914 19.3615,446.247 16.5,445.5C 14.0274,445.912 12.6941,444.912 12.5,442.5C 12.3054,438.085 12.8054,433.751 14,429.5C 18.8269,425.558 23.6602,425.725 28.5,430C 34.2133,429.491 39.8799,428.157 45.5,426C 46.6647,424.008 47.998,422.175 49.5,420.5C 49.8333,420.5 50.1667,420.5 50.5,420.5C 54.1667,420.167 56.1667,418.167 56.5,414.5C 53.4503,413.923 51.4503,415.09 50.5,418C 47.1897,417.771 45.3563,419.271 45,422.5C 39.583,425.248 33.7497,426.248 27.5,425.5C 25.5739,423.707 23.2406,422.707 20.5,422.5C 18.326,422.25 16.6594,421.25 15.5,419.5C 12.4646,415.807 8.46463,413.807 3.5,413.5C 2.12722,410.868 1.12722,408.034 0.5,405C 0.665237,398.337 3.99857,394.837 10.5,394.5C 10.5,391.5 10.5,388.5 10.5,385.5C 10.5,385.167 10.5,384.833 10.5,384.5C 12.2537,381.767 13.9203,378.933 15.5,376C 17.8098,375.503 20.1432,375.337 22.5,375.5C 22.8656,376.695 23.699,377.361 25,377.5C 26.6264,376.982 28.293,376.648 30,376.5C 36.0755,378.204 42.2422,378.704 48.5,378C 49.2524,377.329 49.5858,376.496 49.5,375.5C 51.8333,375.5 54.1667,375.5 56.5,375.5C 56.6107,376.117 56.944,376.617 57.5,377C 60.8168,377.498 64.1501,377.665 67.5,377.5C 67.9194,372.264 67.9194,366.931 67.5,361.5C 68.5463,359.215 68.5463,356.882 67.5,354.5C 69.2204,357.864 70.8871,361.197 72.5,364.5C 82.9923,365.247 93.3256,366.58 103.5,368.5C 103.281,369.675 103.614,370.675 104.5,371.5C 110.824,374.487 116.824,374.154 122.5,370.5C 124.476,372.287 125.809,374.454 126.5,377C 125.249,381.928 127.249,384.428 132.5,384.5C 132.998,387.487 133.498,390.487 134,393.5C 138.188,395.552 140.688,398.885 141.5,403.5C 143.679,404.757 145.679,406.257 147.5,408C 150,408.375 152.333,409.208 154.5,410.5C 155.214,407.973 155.88,405.473 156.5,403C 160.148,402.938 163.815,403.105 167.5,403.5C 167.315,399.934 167.981,396.601 169.5,393.5C 163.775,383.304 163.108,372.804 167.5,362C 172.081,361.785 176.415,361.118 180.5,360C 181.024,362.93 182.358,365.43 184.5,367.5C 186.681,369.348 189.015,369.682 191.5,368.5C 195.959,371.178 197.959,375.178 197.5,380.5C 202.565,380.219 207.565,380.552 212.5,381.5C 212.479,379.398 212.813,377.232 213.5,375C 215.74,374.023 218.073,373.523 220.5,373.5C 219.356,368.967 218.689,364.301 218.5,359.5C 221.166,359.067 223.832,358.567 226.5,358C 227.956,357.577 228.456,356.744 228,355.5C 222.975,355.511 217.809,355.345 212.5,355C 210.048,351.556 208.048,347.89 206.5,344C 207.045,340.813 207.711,337.646 208.5,334.5C 211.193,332.73 214.193,332.063 217.5,332.5C 217.393,330.097 218.393,328.264 220.5,327C 226.332,326.416 230.998,323.75 234.5,319C 246.68,314.345 246.347,312.512 233.5,313.5C 232.907,309.106 234.24,305.44 237.5,302.5C 235.122,299.622 232.288,297.289 229,295.5C 228.333,290.833 228.333,286.167 229,281.5C 233.701,274.409 233.368,267.409 228,260.5C 227.667,256.5 227.333,252.5 227,248.5C 222.341,238.057 222.675,227.723 228,217.5C 232.025,214.137 236.025,210.804 240,207.5C 241.693,202.765 242.86,197.932 243.5,193C 250.472,188.61 258.139,186.777 266.5,187.5C 270.055,187.617 273.722,187.284 277.5,186.5 Z"/></g>
<g><path style="opacity:0.09" fill="#515334" d="M 167.5,176.5 C 168.648,180.981 168.815,185.648 168,190.5C 167.261,192.889 166.095,194.889 164.5,196.5C 167.036,190.106 168.036,183.439 167.5,176.5 Z"/></g>
<g><path style="opacity:1" fill="#d90001" d="M 258.5,190.5 C 262.514,190.334 266.514,190.501 270.5,191C 271.676,192.914 272.676,192.748 273.5,190.5C 275.909,193.874 278.575,197.041 281.5,200C 289.818,202.645 296.818,207.311 302.5,214C 307.49,215.665 311.99,218.165 316,221.5C 316.617,222.449 316.451,223.282 315.5,224C 312.032,225.97 308.699,228.136 305.5,230.5C 303.925,233.985 302.091,237.318 300,240.5C 299.66,244.558 298.993,248.558 298,252.5C 297.74,254.618 296.74,256.284 295,257.5C 294.242,259.769 294.409,261.936 295.5,264C 300.947,266.04 306.614,267.04 312.5,267C 318.256,270.198 323.589,273.865 328.5,278C 330.833,281 333.167,284 335.5,287C 338.167,287.333 340.833,287.667 343.5,288C 344.357,288.689 345.023,289.522 345.5,290.5C 348.786,291.04 351.786,292.206 354.5,294C 357.167,294.333 359.833,294.667 362.5,295C 363.167,296.333 363.833,297.667 364.5,299C 372.493,299.5 380.493,299.666 388.5,299.5C 387.908,304.978 390.242,308.144 395.5,309C 396.022,309.561 396.355,310.228 396.5,311C 394.977,312.854 393.144,314.354 391,315.5C 390.833,316.5 390.667,317.5 390.5,318.5C 391.847,323.231 393.181,327.898 394.5,332.5C 407.882,335.877 407.549,338.877 393.5,341.5C 390.929,342.728 389.595,344.728 389.5,347.5C 388.127,347.343 386.793,347.51 385.5,348C 384.024,350.643 382.024,352.81 379.5,354.5C 379.167,356.333 378.833,358.167 378.5,360C 380.071,369.769 380.737,379.602 380.5,389.5C 384.783,390.449 387.449,393.116 388.5,397.5C 391.086,399.043 393.586,400.709 396,402.5C 396.333,405.833 396.667,409.167 397,412.5C 402.421,416.495 402.754,420.828 398,425.5C 397.272,428.23 397.438,430.897 398.5,433.5C 395.546,437.072 392.046,440.072 388,442.5C 387.814,444.9 387.314,447.234 386.5,449.5C 384.578,450.711 382.745,452.044 381,453.5C 381.202,458.6 380.036,463.267 377.5,467.5C 373.411,469.3 369.077,470.466 364.5,471C 362.809,472.405 360.976,473.572 359,474.5C 358.806,478.802 357.973,482.968 356.5,487C 357.003,491.192 357.669,495.359 358.5,499.5C 361.047,500.934 363.381,502.6 365.5,504.5C 364.667,504.833 363.833,505.167 363,505.5C 358.724,503.472 354.224,502.139 349.5,501.5C 347.519,501.437 345.852,502.104 344.5,503.5C 345.809,505.976 347.642,507.976 350,509.5C 350.359,514.883 352.359,519.549 356,523.5C 356.686,529.801 354.352,534.801 349,538.5C 348.749,540.433 348.249,542.266 347.5,544C 340.984,546.944 334.817,550.444 329,554.5C 324.447,553.615 321.447,550.948 320,546.5C 318.622,544.787 316.955,543.453 315,542.5C 314.503,540.19 314.337,537.857 314.5,535.5C 311.167,535.5 307.833,535.5 304.5,535.5C 304.933,532.834 305.433,530.168 306,527.5C 308.167,526.667 309.667,525.167 310.5,523C 313.754,522.75 316.754,521.75 319.5,520C 321.478,517.503 321.978,514.669 321,511.5C 315.316,508.432 312.816,503.599 313.5,497C 314.34,495.829 315.173,494.662 316,493.5C 316.368,489.15 316.868,484.817 317.5,480.5C 317.398,477.63 316.232,475.297 314,473.5C 313.936,469.097 313.769,464.764 313.5,460.5C 311.792,458.638 309.792,457.138 307.5,456C 300.469,455.239 293.469,455.405 286.5,456.5C 279.243,453.51 272.243,454.01 265.5,458C 257.075,458.152 248.741,458.985 240.5,460.5C 238.833,460.167 237.167,459.833 235.5,459.5C 236.52,457.568 236.687,455.568 236,453.5C 234.989,452.663 233.822,452.33 232.5,452.5C 232.5,451.5 232.5,450.5 232.5,449.5C 229.753,449.187 227.086,449.52 224.5,450.5C 222.336,452.684 219.669,454.017 216.5,454.5C 215.678,458.183 213.512,460.516 210,461.5C 211.27,468.578 208.77,470.745 202.5,468C 201.194,465.427 199.527,463.094 197.5,461C 192.098,460.819 186.765,461.152 181.5,462C 178.252,461.918 175.919,460.418 174.5,457.5C 170.196,456.199 165.863,455.032 161.5,454C 160.712,450.924 160.212,447.758 160,444.5C 157.25,442.282 154.083,440.949 150.5,440.5C 149.798,438.224 149.965,435.891 151,433.5C 155.797,427.416 159.631,420.916 162.5,414C 159.961,412.195 158.961,409.695 159.5,406.5C 163.437,406.793 167.27,406.46 171,405.5C 171.836,401.661 172.669,397.828 173.5,394C 173.166,389.658 171.666,385.824 169,382.5C 167.549,376.361 168.716,370.861 172.5,366C 177.245,365.373 180.578,367.373 182.5,372C 185.5,372.333 188.5,372.667 191.5,373C 194.835,378.124 193.502,381.624 187.5,383.5C 185.558,387.745 185.225,392.078 186.5,396.5C 189.167,397.833 191.833,397.833 194.5,396.5C 196.795,392.433 198.795,388.267 200.5,384C 204.533,382.96 208.199,383.626 211.5,386C 213.134,386.494 214.801,386.66 216.5,386.5C 216.187,383.753 216.52,381.086 217.5,378.5C 225.867,375.439 227.534,370.272 222.5,363C 225.708,362.597 228.708,361.597 231.5,360C 233.255,356.124 232.255,353.124 228.5,351C 224.051,350.592 219.717,350.925 215.5,352C 214.43,349.258 212.93,346.758 211,344.5C 210.333,342.167 210.333,339.833 211,337.5C 213.66,336.166 216.494,335.332 219.5,335C 221.633,331.161 224.966,329.161 229.5,329C 234.221,323.928 239.721,320.095 246,317.5C 249.092,310.084 246.592,307.417 238.5,309.5C 239.252,306.91 240.252,304.41 241.5,302C 239.078,298.571 236.244,295.405 233,292.5C 232.125,291.127 231.625,289.627 231.5,288C 232.954,285.866 234.454,283.699 236,281.5C 236.667,275.833 236.667,270.167 236,264.5C 232.609,254.781 229.443,244.948 226.5,235C 227.883,228.849 230.049,223.016 233,217.5C 237.332,215.727 240.998,213.06 244,209.5C 244.993,205.558 245.66,201.558 246,197.5C 250.351,195.467 254.518,193.134 258.5,190.5 Z"/></g>
<g><path style="opacity:0.175" fill="#ababab" d="M 278.5,187.5 C 280.523,191.039 283.189,194.205 286.5,197C 294.485,198.996 300.819,203.329 305.5,210C 310.366,211.848 315.032,214.182 319.5,217C 320.582,218.33 321.249,219.83 321.5,221.5C 320.163,220.685 319.163,219.518 318.5,218C 313.805,214.986 308.805,212.486 303.5,210.5C 298.589,204.283 292.256,199.95 284.5,197.5C 282.851,195.35 281.018,193.35 279,191.5C 278.51,190.207 278.343,188.873 278.5,187.5 Z"/></g>
<g><path style="opacity:0.286" fill="#404930" d="M 163.5,198.5 C 161.497,201.841 159.497,205.175 157.5,208.5C 157.977,204.207 159.977,200.873 163.5,198.5 Z"/></g>
<g><path style="opacity:0.082" fill="#504d36" d="M 157.5,208.5 C 157.657,209.873 157.49,211.207 157,212.5C 156.023,213.774 155.189,213.774 154.5,212.5C 155.512,211.128 156.512,209.795 157.5,208.5 Z"/></g>
<g><path style="opacity:0.176" fill="#364128" d="M 152.5,213.5 C 152.665,216.85 152.498,220.183 152,223.5C 150.959,225.311 149.793,225.645 148.5,224.5C 149.79,223.942 150.623,222.942 151,221.5C 151.183,218.635 151.683,215.969 152.5,213.5 Z"/></g>
<g><path style="opacity:0.098" fill="#332f33" d="M 660.5,220.5 C 659.599,222.727 657.933,223.727 655.5,223.5C 656.899,222.11 658.566,221.11 660.5,220.5 Z"/></g>
<g><path style="opacity:0.286" fill="#4c4735" d="M 144.5,224.5 C 140.957,226.202 137.79,228.535 135,231.5C 133.97,235.773 133.303,240.106 133,244.5C 132.329,245.252 131.496,245.586 130.5,245.5C 131.929,240.629 133.096,235.629 134,230.5C 136.703,227.066 140.203,225.066 144.5,224.5 Z"/></g>
<g><path style="opacity:0.037" fill="#423c44" d="M 663.5,221.5 C 666.5,223.322 667.167,225.822 665.5,229C 667.382,229.198 669.048,229.698 670.5,230.5C 668.167,230.5 665.833,230.5 663.5,230.5C 663.626,228.8 664.293,227.3 665.5,226C 664.586,224.594 663.92,223.094 663.5,221.5 Z"/></g>
<g><path style="opacity:1" fill="#f605f2" d="M 660.5,220.5 C 661.791,220.263 662.791,220.596 663.5,221.5C 663.92,223.094 664.586,224.594 665.5,226C 664.293,227.3 663.626,228.8 663.5,230.5C 665.833,230.5 668.167,230.5 670.5,230.5C 673.456,232.742 675.122,235.742 675.5,239.5C 670.353,240.465 668.186,243.465 669,248.5C 675.889,250.624 683.056,251.791 690.5,252C 692.314,254.481 692.98,257.315 692.5,260.5C 685.97,261.51 683.137,265.176 684,271.5C 684.377,272.942 685.21,273.942 686.5,274.5C 687.167,274.5 687.5,274.833 687.5,275.5C 687.5,276.5 687.5,277.5 687.5,278.5C 684.194,277.318 680.86,276.485 677.5,276C 674.109,279.022 670.109,280.689 665.5,281C 663.46,283.781 661.793,286.781 660.5,290C 658.866,290.494 657.199,290.66 655.5,290.5C 655.5,293.167 655.5,295.833 655.5,298.5C 655.5,299.167 655.167,299.5 654.5,299.5C 651.482,299.335 648.482,299.502 645.5,300C 642.619,303.61 643.119,306.777 647,309.5C 647.829,314.137 648.329,318.804 648.5,323.5C 644.551,326.618 641.051,330.285 638,334.5C 637.333,337.167 637.333,339.833 638,342.5C 639.308,344.134 640.142,345.968 640.5,348C 639.631,353.129 639.298,358.296 639.5,363.5C 636.486,365.121 633.652,367.121 631,369.5C 630.503,371.81 630.337,374.143 630.5,376.5C 628.735,377.461 626.735,377.795 624.5,377.5C 622.814,374.995 620.481,374.162 617.5,375C 615.174,378.146 613.841,381.646 613.5,385.5C 613.5,387.5 613.5,389.5 613.5,391.5C 612.07,393.455 612.403,395.121 614.5,396.5C 615.477,399.287 615.81,402.287 615.5,405.5C 613.5,405.5 611.5,405.5 609.5,405.5C 608.5,405.5 607.5,405.5 606.5,405.5C 606.5,406.5 606.5,407.5 606.5,408.5C 606.5,409.167 606.5,409.833 606.5,410.5C 606.343,411.873 606.51,413.207 607,414.5C 609.336,416.54 611.169,418.873 612.5,421.5C 612.666,425.846 612.499,430.179 612,434.5C 611.578,436.426 610.411,437.426 608.5,437.5C 608.265,436.903 607.765,436.57 607,436.5C 605.269,437.741 603.436,438.741 601.5,439.5C 600.89,437.566 599.89,435.899 598.5,434.5C 598.305,430.453 598.638,426.453 599.5,422.5C 598.819,419.819 597.152,418.152 594.5,417.5C 594.5,416.833 594.5,416.167 594.5,415.5C 594.008,410.676 593.341,406.01 592.5,401.5C 591.445,397.326 590.445,393.159 589.5,389C 583.405,389.076 580.405,392.243 580.5,398.5C 580.5,399.5 580.5,400.5 580.5,401.5C 578.964,403.025 577.964,405.025 577.5,407.5C 575.929,406.691 574.262,406.357 572.5,406.5C 572.167,406.5 571.833,406.5 571.5,406.5C 564.713,401.255 561.379,394.255 561.5,385.5C 562.918,383.813 564.251,381.98 565.5,380C 568.193,379.657 570.193,378.324 571.5,376C 573.577,375.808 575.577,375.308 577.5,374.5C 578.246,373.264 578.579,371.93 578.5,370.5C 579.874,368.142 581.207,365.808 582.5,363.5C 589.085,355.721 587.418,350.388 577.5,347.5C 575.833,347.5 574.167,347.5 572.5,347.5C 568.465,347.393 564.465,347.726 560.5,348.5C 558.97,348.64 557.97,349.307 557.5,350.5C 556.5,350.5 555.5,350.5 554.5,350.5C 546.065,350.011 537.398,349.677 528.5,349.5C 527.952,347.374 527.285,345.374 526.5,343.5C 526.5,342.833 526.5,342.167 526.5,341.5C 526.827,336.786 526.493,332.12 525.5,327.5C 521.346,324.253 520.513,320.253 523,315.5C 525.583,312.032 528.416,308.699 531.5,305.5C 533.316,303.559 535.316,302.892 537.5,303.5C 539.176,305.834 541.509,306.834 544.5,306.5C 544.833,306.5 545.167,306.5 545.5,306.5C 546.274,307.147 547.274,307.48 548.5,307.5C 550.355,307.66 551.688,306.993 552.5,305.5C 552.611,304.883 552.944,304.383 553.5,304C 555.81,303.503 558.143,303.337 560.5,303.5C 564.406,302.39 568.406,301.557 572.5,301C 574.426,300.578 575.426,299.411 575.5,297.5C 577.298,293.781 577.798,289.781 577,285.5C 574.959,284.577 572.792,284.244 570.5,284.5C 567.615,284.806 564.948,284.473 562.5,283.5C 562.5,281.167 562.5,278.833 562.5,276.5C 564.717,275.631 567.05,275.298 569.5,275.5C 572.959,277.032 575.959,276.199 578.5,273C 580.891,272.713 583.224,272.213 585.5,271.5C 586.773,270.743 586.773,270.077 585.5,269.5C 585.338,267.473 585.505,265.473 586,263.5C 586.383,262.944 586.883,262.611 587.5,262.5C 590.518,261.438 593.518,260.271 596.5,259C 598.466,257.653 598.799,256.153 597.5,254.5C 597.5,253.833 597.833,253.5 598.5,253.5C 600.033,251.645 601.7,249.812 603.5,248C 604.448,247.517 605.448,247.351 606.5,247.5C 607.833,247.5 609.167,247.5 610.5,247.5C 613,244.506 615,241.173 616.5,237.5C 621.719,235.259 625.385,231.926 627.5,227.5C 628.568,226.566 629.901,226.232 631.5,226.5C 635.729,232.204 641.396,234.038 648.5,232C 650.426,231.578 651.426,230.411 651.5,228.5C 651.67,225.796 653.003,224.129 655.5,223.5C 657.933,223.727 659.599,222.727 660.5,220.5 Z"/></g>
<g><path style="opacity:0.078" fill="#392b3a" d="M 631.5,226.5 C 633.609,227.391 635.609,228.558 637.5,230C 642.552,232.347 647.219,231.847 651.5,228.5C 651.426,230.411 650.426,231.578 648.5,232C 641.396,234.038 635.729,232.204 631.5,226.5 Z"/></g>
<g><path style="opacity:0.098" fill="#37303a" d="M 670.5,230.5 C 676.122,231.431 677.788,234.431 675.5,239.5C 675.122,235.742 673.456,232.742 670.5,230.5 Z"/></g>
<g><path style="opacity:0.345" fill="#6b326f" d="M 627.5,227.5 C 625.385,231.926 621.719,235.259 616.5,237.5C 616.414,236.504 616.748,235.671 617.5,235C 621.276,233.053 624.61,230.553 627.5,227.5 Z"/></g>
<g><path style="opacity:0.153" fill="#332034" d="M 616.5,237.5 C 615,241.173 613,244.506 610.5,247.5C 611.498,243.495 613.498,240.161 616.5,237.5 Z"/></g>
<g><path style="opacity:0.043" fill="#4e4a32" d="M 130.5,245.5 C 129.366,248.034 127.366,249.367 124.5,249.5C 126.264,247.879 128.264,246.546 130.5,245.5 Z"/></g>
<g><path style="opacity:0.251" fill="#473949" d="M 606.5,247.5 C 605.448,247.351 604.448,247.517 603.5,248C 601.7,249.812 600.033,251.645 598.5,253.5C 599.42,248.522 602.087,246.522 606.5,247.5 Z"/></g>
<g><path style="opacity:0.086" fill="#453346" d="M 675.5,239.5 C 674.492,241.339 672.992,242.672 671,243.5C 670.018,244.759 669.685,246.092 670,247.5C 672.101,248.615 674.267,248.615 676.5,247.5C 681.117,249.971 686.117,251.138 691.5,251C 693.693,254.038 694.027,257.204 692.5,260.5C 692.98,257.315 692.314,254.481 690.5,252C 683.056,251.791 675.889,250.624 669,248.5C 668.186,243.465 670.353,240.465 675.5,239.5 Z"/></g>
<g><path style="opacity:0.678" fill="#782b78" d="M 597.5,254.5 C 598.799,256.153 598.466,257.653 596.5,259C 593.518,260.271 590.518,261.438 587.5,262.5C 589.8,259.676 592.8,257.843 596.5,257C 597.252,256.329 597.586,255.496 597.5,254.5 Z"/></g>
<g><path style="opacity:0.059" fill="#2e2a31" d="M 692.5,260.5 C 690.414,262.822 687.914,264.822 685,266.5C 684.572,269.322 685.072,271.988 686.5,274.5C 685.21,273.942 684.377,272.942 684,271.5C 683.137,265.176 685.97,261.51 692.5,260.5 Z"/></g>
<g><path style="opacity:0.333" fill="#a6a6a6" d="M 321.5,225.5 C 321.714,227.144 321.38,228.644 320.5,230C 315.295,230.193 311.295,232.526 308.5,237C 305.299,242.345 303.466,248.178 303,254.5C 302.64,256.421 301.806,258.088 300.5,259.5C 301.025,260.192 301.692,260.692 302.5,261C 306.5,261.333 310.5,261.667 314.5,262C 317.899,264.696 321.566,267.03 325.5,269C 330.806,272.973 335.473,277.639 339.5,283C 345.487,284.163 351.153,286.163 356.5,289C 362.041,288.163 366.041,290.163 368.5,295C 373.167,295.667 377.833,295.667 382.5,295C 383.103,292.929 384.436,291.762 386.5,291.5C 385.058,292.82 384.392,294.486 384.5,296.5C 378.824,296.666 373.157,296.499 367.5,296C 365.041,291.163 361.041,289.163 355.5,290C 349.801,287.168 343.801,285.002 337.5,283.5C 327.796,270.168 314.796,262.835 298.5,261.5C 301.102,255.846 302.602,249.846 303,243.5C 305.223,241.277 306.556,238.611 307,235.5C 309.445,234.023 311.612,232.19 313.5,230C 315.473,229.505 317.473,229.338 319.5,229.5C 319.157,227.517 319.824,226.183 321.5,225.5 Z"/></g>
<g><path style="opacity:0.031" fill="#432e43" d="M 585.5,269.5 C 586.773,270.077 586.773,270.743 585.5,271.5C 583.224,272.213 580.891,272.713 578.5,273C 575.959,276.199 572.959,277.032 569.5,275.5C 574.676,272.967 580.01,270.967 585.5,269.5 Z"/></g>
<g><path style="opacity:0.11" fill="#552f54" d="M 495.5,273.5 C 492.423,273.727 489.59,274.727 487,276.5C 486.235,276.43 485.735,276.097 485.5,275.5C 487.423,275.205 489.09,274.372 490.5,273C 492.387,272.22 494.054,272.387 495.5,273.5 Z"/></g>
<g><path style="opacity:0.004" fill="#1e1a22" d="M 495.5,273.5 C 498.858,274.527 500.525,276.86 500.5,280.5C 499.091,278.028 497.424,275.695 495.5,273.5 Z"/></g>
<g><path style="opacity:1" fill="#f40ef0" d="M 495.5,273.5 C 497.424,275.695 499.091,278.028 500.5,280.5C 500.5,281.167 500.5,281.833 500.5,282.5C 499.367,284.055 498.701,285.889 498.5,288C 498.387,289.699 499.053,290.866 500.5,291.5C 502.877,294.324 504.211,297.657 504.5,301.5C 502.414,302.489 500.747,303.822 499.5,305.5C 498.167,305.5 496.833,305.5 495.5,305.5C 492.719,305.094 489.719,305.094 486.5,305.5C 485.094,305.027 484.427,304.027 484.5,302.5C 484.665,299.482 484.498,296.482 484,293.5C 483.617,292.944 483.117,292.611 482.5,292.5C 481.167,290.5 481.167,288.5 482.5,286.5C 484.101,285.481 485.101,283.981 485.5,282C 485.252,280.251 484.252,279.418 482.5,279.5C 482.088,277.027 483.088,275.694 485.5,275.5C 485.735,276.097 486.235,276.43 487,276.5C 489.59,274.727 492.423,273.727 495.5,273.5 Z"/></g>
<g><path style="opacity:0.416" fill="#575130" d="M 70.5,283.5 C 69.5041,283.586 68.6708,283.252 68,282.5C 67.8038,280.714 66.9705,279.381 65.5,278.5C 64.7174,280.288 63.3841,281.288 61.5,281.5C 65.7154,274.557 68.7154,275.224 70.5,283.5 Z"/></g>
<g><path style="opacity:0.184" fill="#4e4a2f" d="M 123.5,250.5 C 123.785,252.288 123.452,253.955 122.5,255.5C 117.886,257.798 113.886,260.798 110.5,264.5C 109.811,266.444 109.311,268.444 109,270.5C 106.108,271.842 104.775,274.175 105,277.5C 103.175,278.103 101.341,278.77 99.5,279.5C 97.9292,282.093 95.5959,283.093 92.5,282.5C 95.4913,281.652 97.8246,279.819 99.5,277C 100.793,276.51 102.127,276.343 103.5,276.5C 103.092,273.401 104.259,271.067 107,269.5C 107.36,267.392 108.027,265.392 109,263.5C 112.471,261.642 115.638,259.475 118.5,257C 120.826,255.195 122.492,253.028 123.5,250.5 Z"/></g>
<g><path style="opacity:0.282" fill="#7a4b7b" d="M 562.5,276.5 C 562.5,278.833 562.5,281.167 562.5,283.5C 560.109,281.098 560.109,278.764 562.5,276.5 Z"/></g>
<g><path style="opacity:0.047" fill="#392d3c" d="M 687.5,275.5 C 689.349,279.494 688.015,280.994 683.5,280C 682.601,278.764 681.434,277.93 680,277.5C 675.691,279.736 671.191,281.569 666.5,283C 664.623,285.251 663.123,287.751 662,290.5C 660.333,291.167 658.667,291.833 657,292.5C 656.809,294.708 656.309,296.708 655.5,298.5C 655.5,295.833 655.5,293.167 655.5,290.5C 657.199,290.66 658.866,290.494 660.5,290C 661.793,286.781 663.46,283.781 665.5,281C 670.109,280.689 674.109,279.022 677.5,276C 680.86,276.485 684.194,277.318 687.5,278.5C 687.5,277.5 687.5,276.5 687.5,275.5 Z"/></g>
<g><path style="opacity:0.008" fill="#79567b" d="M 482.5,279.5 C 484.252,279.418 485.252,280.251 485.5,282C 485.101,283.981 484.101,285.481 482.5,286.5C 483.686,284.126 483.686,281.792 482.5,279.5 Z"/></g>
<g><path style="opacity:0.237" fill="#462546" d="M 500.5,282.5 C 499.576,285.553 499.576,288.553 500.5,291.5C 499.053,290.866 498.387,289.699 498.5,288C 498.701,285.889 499.367,284.055 500.5,282.5 Z"/></g>
<g><path style="opacity:0.071" fill="#45472d" d="M 61.5,281.5 C 59.5615,283.163 57.2282,283.829 54.5,283.5C 52.9748,287.556 51.1415,291.556 49,295.5C 47.2845,298.397 44.7845,299.731 41.5,299.5C 43.8682,298.217 46.0349,296.55 48,294.5C 49.8178,290.864 51.6511,287.198 53.5,283.5C 56.0795,282.451 58.7462,281.784 61.5,281.5 Z"/></g>
<g><path style="opacity:0.376" fill="#afafaf" d="M 389.5,291.5 C 399.17,289.174 405.503,292.84 408.5,302.5C 405.732,299.229 402.732,296.062 399.5,293C 396.312,291.684 392.978,291.184 389.5,291.5 Z"/></g>
<g><path style="opacity:0.02" fill="#603a60" d="M 570.5,284.5 C 572.792,284.244 574.959,284.577 577,285.5C 577.798,289.781 577.298,293.781 575.5,297.5C 575.724,293.796 575.89,290.129 576,286.5C 574.052,285.891 572.218,285.224 570.5,284.5 Z"/></g>
<g><path style="opacity:0.243" fill="#662164" d="M 482.5,292.5 C 483.117,292.611 483.617,292.944 484,293.5C 484.498,296.482 484.665,299.482 484.5,302.5C 483.566,299.344 482.899,296.011 482.5,292.5 Z"/></g>
<g><path style="opacity:0.102" fill="#412a42" d="M 575.5,297.5 C 575.426,299.411 574.426,300.578 572.5,301C 568.406,301.557 564.406,302.39 560.5,303.5C 565.297,301.048 570.297,299.048 575.5,297.5 Z"/></g>
<g><path style="opacity:0.173" fill="#423042" d="M 654.5,299.5 C 652.369,300.314 650.036,300.814 647.5,301C 646.426,301.739 645.759,302.739 645.5,304C 649.382,310.162 650.382,316.662 648.5,323.5C 648.329,318.804 647.829,314.137 647,309.5C 643.119,306.777 642.619,303.61 645.5,300C 648.482,299.502 651.482,299.335 654.5,299.5 Z"/></g>
<g><path style="opacity:0.027" fill="#9d9d9d" d="M 516.5,302.5 C 519.649,302.415 522.316,303.415 524.5,305.5C 524.44,306.043 524.107,306.376 523.5,306.5C 521.235,304.873 518.901,303.539 516.5,302.5 Z"/></g>
<g><path style="opacity:0.02" fill="#4c3c4d" d="M 495.5,305.5 C 494.508,305.328 493.842,305.662 493.5,306.5C 490.941,306.802 488.607,306.468 486.5,305.5C 489.719,305.094 492.719,305.094 495.5,305.5 Z"/></g>
<g><path style="opacity:0.322" fill="#38213a" d="M 537.5,303.5 C 540.157,303.935 542.491,304.935 544.5,306.5C 541.509,306.834 539.176,305.834 537.5,303.5 Z"/></g>
<g><path style="opacity:0.248" fill="#411841" d="M 552.5,305.5 C 551.688,306.993 550.355,307.66 548.5,307.5C 547.274,307.48 546.274,307.147 545.5,306.5C 547.861,306.326 550.194,305.993 552.5,305.5 Z"/></g>
<g><path style="opacity:0.153" fill="#455438" d="M 41.5,299.5 C 38.8333,304.833 38.8333,310.167 41.5,315.5C 40.5041,315.586 39.6708,315.252 39,314.5C 38.3333,309.833 38.3333,305.167 39,300.5C 39.6708,299.748 40.5041,299.414 41.5,299.5 Z"/></g>
<g><path style="opacity:0.118" fill="#9c9c9c" d="M 408.5,302.5 C 412.615,304.775 416.615,307.275 420.5,310C 424.5,310.333 428.5,310.667 432.5,311C 435.818,311.754 438.818,312.92 441.5,314.5C 434.279,312.32 426.612,311.154 418.5,311C 415.833,309.333 413.167,307.667 410.5,306C 409.177,305.184 408.511,304.017 408.5,302.5 Z"/></g>
<g><path style="opacity:1" fill="#96bff8" d="M 441.5,319.5 C 446.148,320.454 450.981,321.12 456,321.5C 458.47,321.66 460.636,320.993 462.5,319.5C 468.932,319.982 475.265,320.982 481.5,322.5C 483.383,322.124 484.883,321.124 486,319.5C 486.497,316.854 486.664,314.187 486.5,311.5C 488.199,311.66 489.866,311.494 491.5,311C 494.098,308.472 497.098,306.972 500.5,306.5C 506.839,306.058 513.006,306.725 519,308.5C 519.465,309.931 520.299,311.097 521.5,312C 517.936,316.754 517.602,321.754 520.5,327C 520,327.167 519.5,327.333 519,327.5C 517.477,325.646 515.644,324.146 513.5,323C 510.183,322.392 506.849,321.892 503.5,321.5C 499.685,322.836 495.685,323.669 491.5,324C 489.695,324.972 488.028,326.139 486.5,327.5C 487.189,329.444 487.689,331.444 488,333.5C 490.333,334.833 492.667,336.167 495,337.5C 495.333,340.167 495.667,342.833 496,345.5C 498.74,346.282 501.574,346.782 504.5,347C 507.468,348.263 508.468,350.263 507.5,353C 503.137,353.369 498.804,353.869 494.5,354.5C 494.799,356.604 494.466,358.604 493.5,360.5C 491.578,361.711 489.745,363.044 488,364.5C 486.82,375.156 491.654,380.156 502.5,379.5C 503.655,382.446 503.821,385.446 503,388.5C 498.372,390.295 496.539,393.628 497.5,398.5C 501.287,397.814 504.454,398.814 507,401.5C 508.337,415.559 510.171,429.559 512.5,443.5C 507.954,443.84 503.454,444.507 499,445.5C 497.333,444.833 495.667,444.167 494,443.5C 491.99,446.487 490.157,449.653 488.5,453C 480.745,455.637 472.745,456.97 464.5,457C 463.516,460.231 462.849,463.564 462.5,467C 462.749,470.592 464.582,473.092 468,474.5C 468.667,477.833 468.667,481.167 468,484.5C 463.256,487.41 459.756,491.41 457.5,496.5C 449.156,496.89 441.822,499.723 435.5,505C 432.833,505.333 430.167,505.667 427.5,506C 426.88,508.473 426.214,510.973 425.5,513.5C 421.469,514.313 419.136,516.646 418.5,520.5C 415.102,520.18 411.768,520.513 408.5,521.5C 407.209,524.297 405.042,525.63 402,525.5C 396.526,523.89 391.026,522.723 385.5,522C 382.341,526.159 378.841,529.992 375,533.5C 374.498,536.513 373.998,539.513 373.5,542.5C 368.038,542.466 362.705,541.966 357.5,541C 356.835,545.659 354.835,549.659 351.5,553C 348.193,553.653 345.527,555.319 343.5,558C 335.348,559.357 334.014,557.357 339.5,552C 343.289,550.369 346.956,548.536 350.5,546.5C 352.4,542.102 355.233,538.435 359,535.5C 359.667,530.167 359.667,524.833 359,519.5C 357.333,517.833 355.667,516.167 354,514.5C 353.713,512.109 353.213,509.776 352.5,507.5C 358.564,508.511 364.73,508.511 371,507.5C 371.667,506.167 371.667,504.833 371,503.5C 368.436,501.273 365.603,499.439 362.5,498C 361.809,496.933 361.309,495.766 361,494.5C 360.832,488.505 360.998,482.505 361.5,476.5C 367.768,473.523 374.435,471.69 381.5,471C 382.333,470.167 383.167,469.333 384,468.5C 384.333,464.167 384.667,459.833 385,455.5C 389.77,452.967 392.27,448.967 392.5,443.5C 394.933,442.27 397.433,441.27 400,440.5C 401.215,435.949 401.881,431.282 402,426.5C 402.615,424.884 403.615,423.551 405,422.5C 405.667,420.5 405.667,418.5 405,416.5C 401.24,411.936 399.24,406.603 399,400.5C 396.512,398.257 393.846,396.257 391,394.5C 390.386,390.921 388.552,388.254 385.5,386.5C 384.959,377.368 383.626,368.368 381.5,359.5C 383.569,356.453 385.569,353.453 387.5,350.5C 390.588,350.803 392.254,349.47 392.5,346.5C 396.974,344.901 401.641,343.735 406.5,343C 409.347,340.429 410.013,337.429 408.5,334C 406.051,333.275 403.717,332.275 401.5,331C 400.316,328.315 398.483,326.148 396,324.5C 395.578,322.645 395.078,320.811 394.5,319C 396.21,317.389 398.043,315.889 400,314.5C 401.238,308.73 398.905,305.397 393,304.5C 392.468,301.736 391.634,299.07 390.5,296.5C 393.822,295.054 396.822,295.554 399.5,298C 405.904,310.034 415.904,316.2 429.5,316.5C 430.093,318.382 430.76,320.215 431.5,322C 435.492,323.177 437.158,321.677 436.5,317.5C 438.514,317.392 440.18,318.058 441.5,319.5 Z"/></g>
<g><path style="opacity:0.18" fill="#494b2c" d="M 41.5,315.5 C 45.8461,315.334 50.1794,315.501 54.5,316C 57.7892,320.789 56.7892,324.289 51.5,326.5C 53.9381,324.341 55.1047,321.675 55,318.5C 54.5,318 54,317.5 53.5,317C 49.3123,316.824 45.3123,316.324 41.5,315.5 Z"/></g>
<g><path style="opacity:0.149" fill="#1e2b2e" d="M 500.5,291.5 C 502.017,291.511 503.184,292.177 504,293.5C 505.255,297.041 505.422,300.541 504.5,304C 503.552,304.483 502.552,304.649 501.5,304.5C 500.662,304.842 500.328,305.508 500.5,306.5C 497.098,306.972 494.098,308.472 491.5,311C 489.866,311.494 488.199,311.66 486.5,311.5C 486.664,314.187 486.497,316.854 486,319.5C 484.883,321.124 483.383,322.124 481.5,322.5C 475.265,320.982 468.932,319.982 462.5,319.5C 460.636,320.993 458.47,321.66 456,321.5C 450.981,321.12 446.148,320.454 441.5,319.5C 442.167,319.5 442.5,319.167 442.5,318.5C 449.205,320.515 455.871,320.515 462.5,318.5C 468.685,319.096 474.852,319.763 481,320.5C 481.873,320.265 482.707,319.931 483.5,319.5C 484.324,316.215 484.824,312.882 485,309.5C 487.714,308.004 490.547,307.004 493.5,306.5C 495.735,306.795 497.735,306.461 499.5,305.5C 500.747,303.822 502.414,302.489 504.5,301.5C 504.211,297.657 502.877,294.324 500.5,291.5 Z"/></g>
<g><path style="opacity:0.031" fill="#9d9d9d" d="M 523.5,333.5 C 520.15,333.665 516.817,333.498 513.5,333C 512.128,331.758 511.128,330.258 510.5,328.5C 509.667,328.167 508.833,327.833 508,327.5C 504.167,328.667 500.333,329.833 496.5,331C 499.963,333.15 501.296,336.316 500.5,340.5C 502.857,340.337 505.19,340.503 507.5,341C 517.699,352.831 515.032,358.998 499.5,359.5C 499.657,360.873 499.49,362.207 499,363.5C 496.555,364.977 494.388,366.81 492.5,369C 494.07,370.397 495.404,371.897 496.5,373.5C 496.44,374.043 496.107,374.376 495.5,374.5C 494.186,373.687 493.019,372.687 492,371.5C 491.732,367.216 493.732,364.216 498,362.5C 498.273,360.899 498.773,359.399 499.5,358C 503.25,357.74 506.916,357.073 510.5,356C 511.61,353.263 511.777,350.429 511,347.5C 509.122,345.957 507.622,344.124 506.5,342C 504.19,341.503 501.857,341.337 499.5,341.5C 500.429,335.64 498.096,332.473 492.5,332C 491.663,330.989 491.33,329.822 491.5,328.5C 497.076,328.785 502.409,327.785 507.5,325.5C 508.5,325.667 509.5,325.833 510.5,326C 512.567,331.469 516.4,333.302 522,331.5C 523.03,331.836 523.53,332.503 523.5,333.5 Z"/></g>
<g><path style="opacity:0.286" fill="#3f422e" d="M 51.5,330.5 C 52.7942,331.29 53.9609,332.29 55,333.5C 55.498,336.482 55.6646,339.482 55.5,342.5C 54.9832,338.296 53.6499,334.296 51.5,330.5 Z"/></g>
<g><path style="opacity:0.136" fill="#4a324a" d="M 648.5,323.5 C 645.523,327.325 642.689,331.325 640,335.5C 639.377,339.805 639.877,343.972 641.5,348C 641.02,353.338 640.353,358.505 639.5,363.5C 639.298,358.296 639.631,353.129 640.5,348C 640.142,345.968 639.308,344.134 638,342.5C 637.333,339.833 637.333,337.167 638,334.5C 641.051,330.285 644.551,326.618 648.5,323.5 Z"/></g>
<g><path style="opacity:0.039" fill="#4a4b43" d="M 65.5,349.5 C 64.6829,347.031 64.1829,344.365 64,341.5C 61.6178,342.554 59.1178,343.221 56.5,343.5C 58.919,341.138 61.919,340.138 65.5,340.5C 65.5,343.5 65.5,346.5 65.5,349.5 Z"/></g>
<g><path style="opacity:0.102" fill="#58435c" d="M 526.5,343.5 C 527.285,345.374 527.952,347.374 528.5,349.5C 526.692,348.082 526.025,346.082 526.5,343.5 Z"/></g>
<g><path style="opacity:0.149" fill="#744674" d="M 572.5,347.5 C 567.684,348.807 562.684,349.807 557.5,350.5C 557.97,349.307 558.97,348.64 560.5,348.5C 564.465,347.726 568.465,347.393 572.5,347.5 Z"/></g>
<g><path style="opacity:0.102" fill="#3f2e41" d="M 577.5,347.5 C 587.418,350.388 589.085,355.721 582.5,363.5C 584.384,360.099 584.884,356.433 584,352.5C 581.648,350.97 579.481,349.303 577.5,347.5 Z"/></g>
<g><path style="opacity:0.035" fill="#684e68" d="M 528.5,349.5 C 537.398,349.677 546.065,350.011 554.5,350.5C 545.673,351.39 537.006,351.056 528.5,349.5 Z"/></g>
<g><path style="opacity:0.106" fill="#312633" d="M 639.5,363.5 C 637.205,366.297 634.705,368.964 632,371.5C 631.802,373.382 631.302,375.048 630.5,376.5C 630.337,374.143 630.503,371.81 631,369.5C 633.652,367.121 636.486,365.121 639.5,363.5 Z"/></g>
<g><path style="opacity:1" fill="#535254" d="M 136.5,633.5 C 135.833,633.5 135.5,633.167 135.5,632.5C 134.021,628.285 132.855,623.952 132,619.5C 129.003,615.209 126.003,610.876 123,606.5C 121.206,595.947 119.54,585.28 118,574.5C 115.012,565.543 112.345,556.543 110,547.5C 109.333,543.833 109.333,540.167 110,536.5C 112.462,534.503 114.295,532.003 115.5,529C 115.355,528.228 115.022,527.561 114.5,527C 112.1,526.814 109.766,526.314 107.5,525.5C 111.381,519.728 111.214,514.062 107,508.5C 106.333,506.167 106.333,503.833 107,501.5C 108.733,495.661 110.9,489.994 113.5,484.5C 111.757,480.016 109.757,475.683 107.5,471.5C 107.667,470.5 107.833,469.5 108,468.5C 111.765,465.374 113.598,461.374 113.5,456.5C 112.022,456.762 110.689,456.429 109.5,455.5C 110.428,454.232 110.595,452.899 110,451.5C 107.411,450.663 105.578,448.997 104.5,446.5C 109.479,439.974 107.812,437.14 99.5,438C 94.9957,444.38 94.329,451.213 97.5,458.5C 96.7766,460.782 96.4433,463.116 96.5,465.5C 94.4727,465.338 92.4727,465.505 90.5,466C 88.2032,468.463 86.5366,471.297 85.5,474.5C 81.8719,474.568 78.2052,474.901 74.5,475.5C 74.0995,477.434 73.0995,478.934 71.5,480C 64.3434,481.249 57.6767,480.082 51.5,476.5C 47.3865,472.706 43.2198,469.039 39,465.5C 37.5429,460.905 34.8762,457.239 31,454.5C 27.8157,449.47 24.149,444.804 20,440.5C 16.3218,436.282 16.6552,432.615 21,429.5C 24.0751,431.425 27.2418,433.091 30.5,434.5C 35.9177,433.319 41.251,431.819 46.5,430C 47.8333,428.333 49.1667,426.667 50.5,425C 54.1641,423.998 57.3308,422.164 60,419.5C 60.8694,411.013 57.3694,408.513 49.5,412C 47.9109,413.745 45.9109,414.912 43.5,415.5C 42.7469,417.753 41.4136,419.587 39.5,421C 30.7672,421.927 23.1005,419.593 16.5,414C 12.2807,413.209 8.61407,411.375 5.5,408.5C 3.18398,401.8 5.51732,397.8 12.5,396.5C 13.4537,391.992 14.4537,387.492 15.5,383C 16.3333,381.5 17.5,380.333 19,379.5C 36.1478,382.05 53.3145,382.05 70.5,379.5C 71.2486,376.09 72.2486,372.756 73.5,369.5C 75.4404,368.905 77.4404,368.572 79.5,368.5C 89.9917,369.719 99.6584,373.219 108.5,379C 112.833,379.333 117.167,379.667 121.5,380C 123.518,383.583 124.852,387.417 125.5,391.5C 126.325,392.386 127.325,392.719 128.5,392.5C 128.286,394.144 128.62,395.644 129.5,397C 131.762,397.642 133.929,398.475 136,399.5C 136.333,401.5 136.667,403.5 137,405.5C 140.981,410.303 146.147,412.97 152.5,413.5C 154.603,415.064 155.436,417.064 155,419.5C 151.79,423.515 149.29,427.848 147.5,432.5C 146.5,432.5 145.5,432.5 144.5,432.5C 144.116,437.128 144.95,441.461 147,445.5C 147.956,446.894 149.289,447.561 151,447.5C 152.8,446.622 154.633,445.955 156.5,445.5C 156.481,447.06 156.148,448.56 155.5,450C 156.957,452.414 158.291,454.914 159.5,457.5C 163.918,459.739 168.584,461.239 173.5,462C 174.167,463 174.833,464 175.5,465C 182.518,465.331 189.518,465.331 196.5,465C 197.536,468.171 198.87,471.171 200.5,474C 203.562,474.741 206.562,474.575 209.5,473.5C 211.758,467.35 214.758,461.683 218.5,456.5C 222.163,455.659 225.83,455.159 229.5,455C 231.091,457.386 232.091,460.053 232.5,463C 243.84,463.259 255.173,462.926 266.5,462C 270.066,459.799 273.9,458.299 278,457.5C 280.477,458.969 283.143,459.969 286,460.5C 294.382,458.005 302.549,458.671 310.5,462.5C 310.334,467.179 310.501,471.845 311,476.5C 312.914,477.414 314.081,478.914 314.5,481C 313.633,484.105 313.299,487.272 313.5,490.5C 310.52,490.641 308.52,492.141 307.5,495C 308.5,497.5 309.5,500 310.5,502.5C 308.776,505.73 309.442,508.396 312.5,510.5C 316.225,510.891 318.225,512.891 318.5,516.5C 313.462,517.395 308.795,519.228 304.5,522C 303.123,525.892 301.623,529.725 300,533.5C 297.488,531.807 295.988,529.474 295.5,526.5C 297.248,522.007 297.915,517.34 297.5,512.5C 288.497,512.228 279.497,511.894 270.5,511.5C 270.918,505.318 268.085,502.651 262,503.5C 257.536,502.781 253.869,504.114 251,507.5C 251.12,512.924 248.62,516.09 243.5,517C 241.71,519.491 239.543,521.658 237,523.5C 236.333,525.167 236.333,526.833 237,528.5C 238.366,530.37 239.533,532.37 240.5,534.5C 238.067,537.745 235.9,541.079 234,544.5C 233.275,545.059 232.442,545.392 231.5,545.5C 229.682,544.364 227.682,543.697 225.5,543.5C 218.153,544.179 214.82,548.179 215.5,555.5C 214.167,555.5 212.833,555.5 211.5,555.5C 211.67,556.822 211.337,557.989 210.5,559C 206.722,560.055 203.389,561.888 200.5,564.5C 199.571,565.689 199.238,567.022 199.5,568.5C 193.791,566.343 187.791,565.343 181.5,565.5C 180.239,569.374 179.572,573.374 179.5,577.5C 176.557,577.647 173.724,578.313 171,579.5C 163.668,575.255 159.835,577.255 159.5,585.5C 155.147,585.765 150.813,586.265 146.5,587C 146,587.5 145.5,588 145,588.5C 146.046,594.08 146.713,599.746 147,605.5C 144.123,606.456 141.456,607.789 139,609.5C 138.505,611.473 138.338,613.473 138.5,615.5C 141.104,615.598 143.104,616.765 144.5,619C 142.057,623.126 140.724,627.626 140.5,632.5C 138.901,632.232 137.568,632.566 136.5,633.5 Z"/></g>
<g><path style="opacity:0.314" fill="#a7a7a7" d="M 67.5,361.5 C 67.9194,366.931 67.9194,372.264 67.5,377.5C 64.1501,377.665 60.8168,377.498 57.5,377C 56.944,376.617 56.6107,376.117 56.5,375.5C 59.8333,375.833 63.1667,376.167 66.5,376.5C 66.1795,371.305 66.5128,366.305 67.5,361.5 Z"/></g>
<g><path style="opacity:0.141" fill="#412741" d="M 578.5,370.5 C 578.579,371.93 578.246,373.264 577.5,374.5C 575.577,375.308 573.577,375.808 571.5,376C 570.193,378.324 568.193,379.657 565.5,380C 564.251,381.98 562.918,383.813 561.5,385.5C 561.797,382.441 563.13,379.941 565.5,378C 568.187,377.659 570.187,376.326 571.5,374C 574.637,374.108 576.97,372.941 578.5,370.5 Z"/></g>
<g><path style="opacity:0.004" fill="#2e2531" d="M 624.5,377.5 C 622.545,376.677 620.545,376.51 618.5,377C 616.933,379.979 615.266,382.812 613.5,385.5C 613.841,381.646 615.174,378.146 617.5,375C 620.481,374.162 622.814,374.995 624.5,377.5 Z"/></g>
<g><path style="opacity:0.294" fill="#939393" d="M 22.5,375.5 C 29.7475,375.368 36.9141,376.034 44,377.5C 45.8003,376.68 47.6336,376.014 49.5,375.5C 49.5858,376.496 49.2524,377.329 48.5,378C 42.2422,378.704 36.0755,378.204 30,376.5C 28.293,376.648 26.6264,376.982 25,377.5C 23.699,377.361 22.8656,376.695 22.5,375.5 Z"/></g>
<g><path style="opacity:0.212" fill="#bdbdbd" d="M 22.5,375.5 C 20.1432,375.337 17.8098,375.503 15.5,376C 13.9203,378.933 12.2537,381.767 10.5,384.5C 10.5341,379.085 13.0341,375.418 18,373.5C 19.7275,373.899 21.2275,374.566 22.5,375.5 Z"/></g>
<g><path style="opacity:1" fill="#d88a43" d="M 193.5,383.5 C 194.649,383.791 195.316,384.624 195.5,386C 195.333,386.833 195.167,387.667 195,388.5C 192.842,389.826 191.008,391.493 189.5,393.5C 188.628,391.534 188.795,389.534 190,387.5C 191.376,386.295 192.542,384.962 193.5,383.5 Z"/></g>
<g><path style="opacity:0.055" fill="#392f3a" d="M 592.5,401.5 C 592.5,404.833 592.5,408.167 592.5,411.5C 591.782,404.893 590.615,398.227 589,391.5C 587.493,390.465 585.993,390.632 584.5,392C 583.267,394.314 581.933,396.481 580.5,398.5C 580.405,392.243 583.405,389.076 589.5,389C 590.445,393.159 591.445,397.326 592.5,401.5 Z"/></g>
<g><path style="opacity:0.18" fill="#3d1d3d" d="M 613.5,391.5 C 613.629,393.216 613.962,394.883 614.5,396.5C 612.403,395.121 612.07,393.455 613.5,391.5 Z"/></g>
<g><path style="opacity:0.333" fill="#523254" d="M 561.5,385.5 C 561.379,394.255 564.713,401.255 571.5,406.5C 569.61,406.703 568.11,406.037 567,404.5C 565,401.167 563,397.833 561,394.5C 560.195,391.304 560.362,388.304 561.5,385.5 Z"/></g>
<g><path style="opacity:0.082" fill="#a9a9a9" d="M 10.5,385.5 C 10.5,388.5 10.5,391.5 10.5,394.5C 3.99857,394.837 0.665237,398.337 0.5,405C 1.12722,408.034 2.12722,410.868 3.5,413.5C 1.80584,412.473 0.472504,411.139 -0.5,409.5C -0.5,406.833 -0.5,404.167 -0.5,401.5C 0.793048,400.158 1.62638,398.491 2,396.5C 4.33333,394.833 6.66667,393.167 9,391.5C 9.19088,389.292 9.69088,387.292 10.5,385.5 Z"/></g>
<g><path style="opacity:0.489" fill="#813f81" d="M 580.5,401.5 C 581.653,409.875 578.986,411.542 572.5,406.5C 574.262,406.357 575.929,406.691 577.5,407.5C 577.964,405.025 578.964,403.025 580.5,401.5 Z"/></g>
<g><path style="opacity:0.391" fill="#6e196d" d="M 592.5,401.5 C 593.341,406.01 594.008,410.676 594.5,415.5C 592.896,414.713 592.229,413.38 592.5,411.5C 592.5,408.167 592.5,404.833 592.5,401.5 Z"/></g>
<g><path style="opacity:0.008" fill="#a6a6a6" d="M 500.5,373.5 C 503.846,373.435 506.346,374.768 508,377.5C 508.667,382.167 508.667,386.833 508,391.5C 504.668,393.443 504.834,394.61 508.5,395C 510.049,396.214 511.215,397.714 512,399.5C 513.162,405.116 513.996,410.782 514.5,416.5C 513.883,416.389 513.383,416.056 513,415.5C 512.405,409.73 511.405,404.063 510,398.5C 507.695,396.184 504.862,394.85 501.5,394.5C 503.747,393.755 505.58,392.422 507,390.5C 507.879,385.713 507.545,381.047 506,376.5C 503.791,376.011 501.958,375.011 500.5,373.5 Z"/></g>
<g><path style="opacity:0.067" fill="#4a444b" d="M 609.5,405.5 C 608.5,406.5 607.5,407.5 606.5,408.5C 606.5,407.5 606.5,406.5 606.5,405.5C 607.5,405.5 608.5,405.5 609.5,405.5 Z"/></g>
<g><path style="opacity:0.02" fill="#a1a1a1" d="M 3.5,413.5 C 8.46463,413.807 12.4646,415.807 15.5,419.5C 11.4612,417.481 7.46123,415.481 3.5,413.5 Z"/></g>
<g><path style="opacity:0.349" fill="#302634" d="M 606.5,410.5 C 607.831,413.127 609.664,415.46 612,417.5C 612.49,418.793 612.657,420.127 612.5,421.5C 611.169,418.873 609.336,416.54 607,414.5C 606.51,413.207 606.343,411.873 606.5,410.5 Z"/></g>
<g><path style="opacity:0.008" fill="#6e6370" d="M 594.5,417.5 C 597.152,418.152 598.819,419.819 599.5,422.5C 598.638,426.453 598.305,430.453 598.5,434.5C 597.674,430.018 597.174,425.351 597,420.5C 595.955,419.627 595.122,418.627 594.5,417.5 Z"/></g>
<g><path style="opacity:0.329" fill="#a1a1a1" d="M 50.5,420.5 C 50.1667,419.167 49.8333,419.167 49.5,420.5C 47.998,422.175 46.6647,424.008 45.5,426C 39.8799,428.157 34.2133,429.491 28.5,430C 23.6602,425.725 18.8269,425.558 14,429.5C 12.8054,433.751 12.3054,438.085 12.5,442.5C 9.72178,435.946 11.0551,430.113 16.5,425C 18.5,424.667 20.5,424.333 22.5,424C 21.5842,423.722 20.9175,423.222 20.5,422.5C 23.2406,422.707 25.5739,423.707 27.5,425.5C 33.7497,426.248 39.583,425.248 45,422.5C 45.3563,419.271 47.1897,417.771 50.5,418C 51.4503,415.09 53.4503,413.923 56.5,414.5C 56.1667,418.167 54.1667,420.167 50.5,420.5 Z M 27.5,425.5 C 29.9686,426.317 32.6353,426.817 35.5,427C 32.0341,429.988 28.7007,429.655 25.5,426C 26.0944,425.536 26.7611,425.369 27.5,425.5 Z"/></g>
<g><path style="opacity:0.2" fill="#3f2e42" d="M 598.5,434.5 C 599.89,435.899 600.89,437.566 601.5,439.5C 598.916,438.952 597.916,437.285 598.5,434.5 Z"/></g>
<g><path style="opacity:0.165" fill="#412d45" d="M 608.5,437.5 C 607.373,438.122 606.373,438.955 605.5,440C 603.934,440.765 602.601,440.598 601.5,439.5C 603.436,438.741 605.269,437.741 607,436.5C 607.765,436.57 608.265,436.903 608.5,437.5 Z"/></g>
<g><path style="opacity:0.043" fill="#9b9b9b" d="M 514.5,424.5 C 515.137,427.456 515.637,430.456 516,433.5C 517.431,436.083 518.598,438.75 519.5,441.5C 519.444,444.111 518.444,446.278 516.5,448C 510.65,448.454 504.984,449.621 499.5,451.5C 504.612,448.468 510.279,446.801 516.5,446.5C 518.311,442.733 517.811,439.4 515,436.5C 514.718,432.961 514.218,429.461 513.5,426C 513.57,425.235 513.903,424.735 514.5,424.5 Z"/></g>
<g><path style="opacity:0.027" fill="#afafaf" d="M 16.5,445.5 C 19.3615,446.247 21.3615,447.914 22.5,450.5C 19.8908,449.557 17.8908,447.89 16.5,445.5 Z"/></g>
<g><path style="opacity:0.255" fill="#a9a9a9" d="M 496.5,451.5 C 495.488,452.872 494.488,454.205 493.5,455.5C 493.343,454.127 493.51,452.793 494,451.5C 494.77,450.402 495.603,450.402 496.5,451.5 Z"/></g>
<g><path style="opacity:0.039" fill="#a0a0a0" d="M 22.5,450.5 C 30.2495,459.096 37.9161,467.93 45.5,477C 50.5602,479.615 55.5602,482.115 60.5,484.5C 54.5865,483.708 49.2532,481.542 44.5,478C 36.0768,469.624 28.7435,460.457 22.5,450.5 Z"/></g>
<g><path style="opacity:0.039" fill="#aaaaaa" d="M 493.5,455.5 C 487.253,460.817 479.92,462.984 471.5,462C 469.203,463.263 468.37,465.097 469,467.5C 471.043,468.579 472.376,470.246 473,472.5C 473.667,477.167 473.667,481.833 473,486.5C 471.333,489.5 469,491.833 466,493.5C 464.877,496.249 463.377,498.749 461.5,501C 459.655,502.128 457.655,502.628 455.5,502.5C 457.189,501.696 458.855,500.696 460.5,499.5C 463.052,494.443 466.552,490.11 471,486.5C 471.667,481.5 471.667,476.5 471,471.5C 467.26,468.8 466.593,465.466 469,461.5C 473.08,460.7 477.247,460.2 481.5,460C 485.485,458.395 489.485,456.895 493.5,455.5 Z"/></g>
<g><path style="opacity:0.012" fill="#a4a4a4" d="M 104.5,477.5 C 103.883,477.389 103.383,477.056 103,476.5C 102.627,474.302 102.127,472.135 101.5,470C 102.654,467.361 103.988,464.861 105.5,462.5C 105.297,460.792 104.464,459.459 103,458.5C 103.134,464.927 100.3,469.26 94.5,471.5C 92.0593,473.926 90.0593,476.593 88.5,479.5C 89.3032,475.902 90.6366,472.569 92.5,469.5C 94.6547,469.628 96.6547,469.128 98.5,468C 99.0864,465.72 99.9197,463.553 101,461.5C 101.667,459.167 101.667,456.833 101,454.5C 98.1825,450.582 98.0158,446.582 100.5,442.5C 101.451,441.674 102.451,441.508 103.5,442C 101.876,443.117 100.876,444.617 100.5,446.5C 102.72,449.785 103.887,453.451 104,457.5C 105.011,458.337 106.178,458.67 107.5,458.5C 107.152,462.753 105.818,466.586 103.5,470C 104.159,472.462 104.493,474.962 104.5,477.5 Z"/></g>
<g><path style="opacity:0.085" fill="#bdbdbd" d="M 76.5,482.5 C 76.0472,483.458 75.3805,484.292 74.5,485C 69.6478,485.815 64.9811,485.648 60.5,484.5C 66.0228,484.931 71.3561,484.264 76.5,482.5 Z"/></g>
<g><path style="opacity:0.239" fill="#adadad" d="M 453.5,502.5 C 447.937,504.615 442.604,507.281 437.5,510.5C 437.859,508.629 438.859,507.129 440.5,506C 444.933,504.886 449.266,503.719 453.5,502.5 Z"/></g>
<g><path style="opacity:0.998" fill="#38c202" d="M 409.5,534.5 C 402.91,540.917 396.076,547.251 389,553.5C 387.659,556.022 386.826,558.689 386.5,561.5C 383.752,563.21 381.418,565.376 379.5,568C 373.558,568.917 367.891,570.584 362.5,573C 360.963,574.11 360.297,575.61 360.5,577.5C 358.577,577.795 356.91,578.628 355.5,580C 356.752,582.633 358.086,585.133 359.5,587.5C 359.5,588.5 359.5,589.5 359.5,590.5C 358.163,591.315 357.163,592.482 356.5,594C 354.256,594.05 352.589,594.883 351.5,596.5C 347.814,598.42 344.147,600.087 340.5,601.5C 339.167,601.5 337.833,601.5 336.5,601.5C 333.871,600.073 331.705,600.739 330,603.5C 327.598,607.103 326.431,611.103 326.5,615.5C 323.205,617.009 320.205,616.509 317.5,614C 314.103,614.306 310.769,615.306 307.5,617C 305.789,619.589 303.955,622.089 302,624.5C 301.728,629.721 300.728,634.721 299,639.5C 297.804,645.071 298.638,650.237 301.5,655C 300.507,657.453 300.34,659.953 301,662.5C 302.555,664.443 303.722,666.61 304.5,669C 302.615,673.207 303.448,676.707 307,679.5C 307.179,683.025 307.679,686.359 308.5,689.5C 308.167,690.5 307.5,691.167 306.5,691.5C 305.458,690.209 304.292,690.209 303,691.5C 302.506,693.134 302.34,694.801 302.5,696.5C 298.323,695.842 296.823,697.508 298,701.5C 298.85,703.01 299.683,704.51 300.5,706C 298.729,708.487 296.562,710.654 294,712.5C 291.944,716.268 290.778,720.268 290.5,724.5C 290.5,725.5 290.5,726.5 290.5,727.5C 291.37,731.685 292.703,735.685 294.5,739.5C 294.5,744.167 294.5,748.833 294.5,753.5C 294.5,755.167 294.5,756.833 294.5,758.5C 291.933,758.721 289.599,759.388 287.5,760.5C 285.167,760.5 282.833,760.5 280.5,760.5C 280.103,759.475 279.437,759.308 278.5,760C 275.603,761.715 274.269,764.215 274.5,767.5C 274.5,767.833 274.5,768.167 274.5,768.5C 274.663,770.857 274.497,773.19 274,775.5C 273.311,776.357 272.478,777.023 271.5,777.5C 270.509,781.445 270.176,785.445 270.5,789.5C 268.833,789.5 267.167,789.5 265.5,789.5C 263.821,789.285 262.821,789.952 262.5,791.5C 262.167,791.5 261.833,791.5 261.5,791.5C 260.399,790.402 259.066,790.235 257.5,791C 255.136,792.962 252.469,794.462 249.5,795.5C 248.239,799.061 247.406,802.728 247,806.5C 246.215,808.286 245.049,809.786 243.5,811C 239.167,812.667 234.833,814.333 230.5,816C 227.151,816.388 223.817,816.221 220.5,815.5C 220.167,815.5 219.833,815.5 219.5,815.5C 211.524,807.858 203.524,800.192 195.5,792.5C 195.5,790.833 195.5,789.167 195.5,787.5C 197.343,785.841 198.343,783.675 198.5,781C 196.678,778.346 194.678,775.846 192.5,773.5C 192.5,769.833 192.5,766.167 192.5,762.5C 193.195,756.53 190.862,752.197 185.5,749.5C 185.663,747.143 185.497,744.81 185,742.5C 181.232,733.952 176.732,725.952 171.5,718.5C 169.6,714.268 166.933,710.601 163.5,707.5C 160.504,701.502 157.504,695.502 154.5,689.5C 153.527,687.052 153.194,684.385 153.5,681.5C 153.184,676.156 152.684,670.822 152,665.5C 148.439,656.555 144.939,647.555 141.5,638.5C 144.045,631.066 146.712,623.733 149.5,616.5C 145.78,616.113 143.78,614.113 143.5,610.5C 146.652,611.041 149.152,610.041 151,607.5C 151.139,601.637 150.305,595.97 148.5,590.5C 152.873,589.977 157.206,589.143 161.5,588C 162.717,586.352 163.55,584.519 164,582.5C 164.561,581.978 165.228,581.645 166,581.5C 167.396,582.394 168.896,583.061 170.5,583.5C 174.138,582.818 177.805,582.318 181.5,582C 182,581.5 182.5,581 183,580.5C 183.499,576.848 183.665,573.182 183.5,569.5C 189.724,571.139 196.057,571.972 202.5,572C 202.906,568.585 204.572,565.918 207.5,564C 214.874,562.132 219.207,557.632 220.5,550.5C 222.609,549.35 224.609,548.016 226.5,546.5C 229.028,549.039 232.028,549.872 235.5,549C 237.141,544.676 239.641,540.842 243,537.5C 243.667,535.167 243.667,532.833 243,530.5C 241.017,529.234 240.017,527.568 240,525.5C 242.941,523.029 246.274,521.363 250,520.5C 251.757,516.657 253.591,512.823 255.5,509C 259.145,508.281 262.812,507.781 266.5,507.5C 266.665,509.827 267.331,511.993 268.5,514C 277.168,515.057 285.834,516.223 294.5,517.5C 289.44,532.284 294.773,539.784 310.5,540C 311.169,544 313.336,546.833 317,548.5C 318.375,550.376 319.542,552.376 320.5,554.5C 323.255,555.631 325.589,557.298 327.5,559.5C 331.265,560.733 335.099,561.733 339,562.5C 342.533,561.6 346.033,560.6 349.5,559.5C 350.881,557.309 352.881,555.976 355.5,555.5C 357.246,551.673 359.246,548.007 361.5,544.5C 366.744,546.535 372.077,546.535 377.5,544.5C 379.143,537.715 382.476,531.882 387.5,527C 389.5,526.333 391.5,526.333 393.5,527C 397.402,530.205 401.735,531.039 406.5,529.5C 407.891,527.11 409.891,525.443 412.5,524.5C 413.833,525.167 414.833,526.167 415.5,527.5C 412.802,529.225 410.802,531.559 409.5,534.5 Z"/></g>
<g><path style="opacity:0.173" fill="#a8a8a8" d="M 433.5,511.5 C 432.245,516.089 429.245,519.089 424.5,520.5C 423.388,522.419 422.054,524.086 420.5,525.5C 420.963,520.737 423.63,517.903 428.5,517C 430.041,514.96 431.374,512.793 432.5,510.5C 433.107,510.624 433.44,510.957 433.5,511.5 Z"/></g>
<g><path style="opacity:0.263" fill="#a4a4a4" d="M 104.5,477.5 C 107.032,478.699 108.365,480.699 108.5,483.5C 105.944,490.282 104.277,497.282 103.5,504.5C 103.782,508.903 104.782,513.07 106.5,517C 104.886,520.971 104.386,525.138 105,529.5C 106.787,530.343 108.62,530.51 110.5,530C 106.812,532.542 105.146,536.042 105.5,540.5C 106.97,546.05 108.303,551.716 109.5,557.5C 109.48,558.726 109.147,559.726 108.5,560.5C 108.023,555.665 106.856,550.998 105,546.5C 104.223,541.778 104.39,537.111 105.5,532.5C 101.635,528.109 101.635,523.609 105.5,519C 105.014,515.573 103.847,512.406 102,509.5C 101.529,500.546 103.362,492.046 107.5,484C 106.609,481.721 105.609,479.554 104.5,477.5 Z"/></g>
<g><path style="opacity:0.184" fill="#2d332b" d="M 409.5,534.5 C 407.241,537.938 404.741,541.271 402,544.5C 398.667,547.167 395.333,549.833 392,552.5C 390.128,555.596 388.295,558.596 386.5,561.5C 386.826,558.689 387.659,556.022 389,553.5C 396.076,547.251 402.91,540.917 409.5,534.5 Z"/></g>
<g><path style="opacity:0.043" fill="#a7a7a7" d="M 108.5,561.5 C 110.686,562.823 112.186,564.823 113,567.5C 113.696,570.478 114.196,573.478 114.5,576.5C 112.357,571.639 110.357,566.639 108.5,561.5 Z"/></g>
<g><path style="opacity:0.051" fill="#323730" d="M 386.5,561.5 C 385.565,563.861 384.232,566.028 382.5,568C 378.378,569.96 374.045,571.293 369.5,572C 366.248,573.566 363.248,575.399 360.5,577.5C 360.297,575.61 360.963,574.11 362.5,573C 367.891,570.584 373.558,568.917 379.5,568C 381.418,565.376 383.752,563.21 386.5,561.5 Z"/></g>
<g><path style="opacity:0.427" fill="#272d26" d="M 360.5,577.5 C 359.418,578.594 358.752,579.927 358.5,581.5C 359.156,583.453 359.489,585.453 359.5,587.5C 358.086,585.133 356.752,582.633 355.5,580C 356.91,578.628 358.577,577.795 360.5,577.5 Z"/></g>
<g><path style="opacity:0.024" fill="#2a3525" d="M 359.5,590.5 C 359.714,592.144 359.38,593.644 358.5,595C 356.134,595.44 353.801,595.94 351.5,596.5C 352.589,594.883 354.256,594.05 356.5,594C 357.163,592.482 358.163,591.315 359.5,590.5 Z"/></g>
<g><path style="opacity:0.008" fill="#434b41" d="M 351.5,596.5 C 351.426,598.411 350.426,599.578 348.5,600C 345.832,600.567 343.166,601.067 340.5,601.5C 344.147,600.087 347.814,598.42 351.5,596.5 Z"/></g>
<g><path style="opacity:0.055" fill="#262d23" d="M 336.5,601.5 C 330.745,603.782 327.912,608.115 328,614.5C 327.617,615.056 327.117,615.389 326.5,615.5C 326.431,611.103 327.598,607.103 330,603.5C 331.705,600.739 333.871,600.073 336.5,601.5 Z"/></g>
<g><path style="opacity:0.012" fill="#a5a5a5" d="M 115.5,587.5 C 117.244,596.353 119.077,605.353 121,614.5C 124.846,617.593 127.679,621.259 129.5,625.5C 125.792,621.8 122.292,617.8 119,613.5C 116.421,605.026 115.254,596.359 115.5,587.5 Z"/></g>
<g><path style="opacity:0.102" fill="#2e352a" d="M 326.5,615.5 C 326.116,617.293 324.95,618.293 323,618.5C 320.113,618.097 317.779,616.764 316,614.5C 314.065,616.102 311.899,617.269 309.5,618C 307.667,620.5 305.833,623 304,625.5C 303.579,632.443 302.079,639.11 299.5,645.5C 300.5,648.833 301.5,652.167 302.5,655.5C 301.209,660.105 302.376,664.105 306,667.5C 306.896,670.025 306.396,672.192 304.5,674C 308.179,678.43 309.512,683.597 308.5,689.5C 307.679,686.359 307.179,683.025 307,679.5C 303.448,676.707 302.615,673.207 304.5,669C 303.722,666.61 302.555,664.443 301,662.5C 300.34,659.953 300.507,657.453 301.5,655C 298.638,650.237 297.804,645.071 299,639.5C 300.728,634.721 301.728,629.721 302,624.5C 303.955,622.089 305.789,619.589 307.5,617C 310.769,615.306 314.103,614.306 317.5,614C 320.205,616.509 323.205,617.009 326.5,615.5 Z"/></g>
<g><path style="opacity:0.043" fill="#2f372a" d="M 306.5,691.5 C 305.167,693.167 303.833,694.833 302.5,696.5C 302.34,694.801 302.506,693.134 303,691.5C 304.292,690.209 305.458,690.209 306.5,691.5 Z"/></g>
<g><path style="opacity:0.067" fill="#292f26" d="M 154.5,689.5 C 157.504,695.502 160.504,701.502 163.5,707.5C 158.899,702.299 155.899,696.299 154.5,689.5 Z"/></g>
<g><path style="opacity:0.039" fill="#31372e" d="M 302.5,696.5 C 301.064,697.429 299.731,698.595 298.5,700C 302.941,704.963 302.275,709.13 296.5,712.5C 294.672,716.692 292.672,720.692 290.5,724.5C 290.778,720.268 291.944,716.268 294,712.5C 296.562,710.654 298.729,708.487 300.5,706C 299.683,704.51 298.85,703.01 298,701.5C 296.823,697.508 298.323,695.842 302.5,696.5 Z"/></g>
<g><path style="opacity:0.404" fill="#1f241e" d="M 163.5,707.5 C 166.933,710.601 169.6,714.268 171.5,718.5C 167.68,715.679 165.013,712.012 163.5,707.5 Z"/></g>
<g><path style="opacity:0.275" fill="#252b23" d="M 171.5,718.5 C 176.732,725.952 181.232,733.952 185,742.5C 185.497,744.81 185.663,747.143 185.5,749.5C 181.159,739.141 176.492,728.808 171.5,718.5 Z"/></g>
<g><path style="opacity:0.255" fill="#2d302d" d="M 290.5,727.5 C 292.979,730.72 294.812,734.387 296,738.5C 296.497,740.81 296.663,743.143 296.5,745.5C 295.833,743.5 295.167,741.5 294.5,739.5C 292.703,735.685 291.37,731.685 290.5,727.5 Z"/></g>
<g><path style="opacity:0.333" fill="#2f5a22" d="M 294.5,739.5 C 295.167,741.5 295.833,743.5 296.5,745.5C 295.612,748.054 295.279,750.721 295.5,753.5C 295.167,753.5 294.833,753.5 294.5,753.5C 294.5,748.833 294.5,744.167 294.5,739.5 Z"/></g>
<g><path style="opacity:0.031" fill="#373b35" d="M 185.5,749.5 C 190.862,752.197 193.195,756.53 192.5,762.5C 192.167,762.5 191.833,762.5 191.5,762.5C 191.662,760.473 191.495,758.473 191,756.5C 188.546,754.559 186.713,752.225 185.5,749.5 Z"/></g>
<g><path style="opacity:0.016" fill="#2d312a" d="M 294.5,753.5 C 294.833,753.5 295.167,753.5 295.5,753.5C 297.039,755.773 296.706,757.773 294.5,759.5C 292.253,760.374 289.92,760.708 287.5,760.5C 289.599,759.388 291.933,758.721 294.5,758.5C 294.5,756.833 294.5,755.167 294.5,753.5 Z"/></g>
<g><path style="opacity:0.059" fill="#2c2f2b" d="M 280.5,760.5 C 277.8,762.234 275.8,764.568 274.5,767.5C 274.269,764.215 275.603,761.715 278.5,760C 279.437,759.308 280.103,759.475 280.5,760.5 Z"/></g>
<g><path style="opacity:0.376" fill="#467132" d="M 191.5,762.5 C 191.833,762.5 192.167,762.5 192.5,762.5C 192.5,766.167 192.5,769.833 192.5,773.5C 192.167,773.5 191.833,773.5 191.5,773.5C 190.911,769.933 190.911,766.267 191.5,762.5 Z"/></g>
<g><path style="opacity:0.055" fill="#2d3529" d="M 274.5,768.5 C 276.272,772.937 275.439,776.937 272,780.5C 271.605,782.179 271.772,783.845 272.5,785.5C 272.332,787.171 271.665,788.504 270.5,789.5C 270.176,785.445 270.509,781.445 271.5,777.5C 272.478,777.023 273.311,776.357 274,775.5C 274.497,773.19 274.663,770.857 274.5,768.5 Z"/></g>
<g><path style="opacity:0.573" fill="#282e26" d="M 191.5,773.5 C 191.833,773.5 192.167,773.5 192.5,773.5C 194.678,775.846 196.678,778.346 198.5,781C 198.343,783.675 197.343,785.841 195.5,787.5C 196.167,785.181 196.334,782.847 196,780.5C 194.277,778.283 192.777,775.95 191.5,773.5 Z"/></g>
<g><path style="opacity:0.11" fill="#525456" d="M 265.5,789.5 C 264.71,790.401 263.71,791.068 262.5,791.5C 262.821,789.952 263.821,789.285 265.5,789.5 Z"/></g>
<g><path style="opacity:0.325" fill="#313b2f" d="M 195.5,792.5 C 203.524,800.192 211.524,807.858 219.5,815.5C 218.127,815.657 216.793,815.49 215.5,815C 211,809.167 205.833,804 200,799.5C 198.25,797.266 196.75,794.932 195.5,792.5 Z"/></g>
<g><path style="opacity:0.133" fill="#2a3227" d="M 261.5,791.5 C 258.237,793.963 254.571,795.63 250.5,796.5C 249.648,801.241 248.481,805.908 247,810.5C 238.825,816.751 229.992,818.418 220.5,815.5C 223.817,816.221 227.151,816.388 230.5,816C 234.833,814.333 239.167,812.667 243.5,811C 245.049,809.786 246.215,808.286 247,806.5C 247.406,802.728 248.239,799.061 249.5,795.5C 252.469,794.462 255.136,792.962 257.5,791C 259.066,790.235 260.399,790.402 261.5,791.5 Z"/></g>
</svg>
